<svg width="20" height="14" viewBox="0 0 20 14" fill="none" xmlns="http://www.w3.org/2000/svg">
<path fill-rule="evenodd" clip-rule="evenodd" d="M0 6.99998C0 6.57043 0.330022 6.2222 0.737124 6.2222H18.4288C18.8359 6.2222 19.1659 6.57043 19.1659 6.99998C19.1659 7.42953 18.8359 7.77776 18.4288 7.77776H0.737124C0.330022 7.77776 0 7.42953 0 6.99998Z" fill="white"/>
<path fill-rule="evenodd" clip-rule="evenodd" d="M14.0249 0.180301C14.3376 -0.094699 14.8024 -0.050123 15.0631 0.279864L19.7152 6.17011C20.0949 6.65085 20.0949 7.34915 19.7152 7.82989L15.0631 13.7201C14.8024 14.0501 14.3376 14.0947 14.0249 13.8197C13.7122 13.5447 13.6699 13.0543 13.9305 12.7243L18.4516 7L13.9305 1.27573C13.6699 0.945739 13.7122 0.4553 14.0249 0.180301Z" fill="white"/>
</svg>
