<svg width="24" height="16" viewBox="0 0 24 16" fill="none" xmlns="http://www.w3.org/2000/svg">
<path fill-rule="evenodd" clip-rule="evenodd" d="M1.71429 3.2H22.2857C23.2286 3.2 24 2.48 24 1.6C24 0.72 23.2286 0 22.2857 0H1.71429C0.771429 0 0 0.72 0 1.6C0 2.48 0.771429 3.2 1.71429 3.2ZM1.71429 9.6H22.2857C23.2286 9.6 24 8.88 24 8C24 7.12 23.2286 6.4 22.2857 6.4H1.71429C0.771429 6.4 0 7.12 0 8C0 8.88 0.771429 9.6 1.71429 9.6ZM1.71429 16H22.2857C23.2286 16 24 15.28 24 14.4C24 13.52 23.2286 12.8 22.2857 12.8H1.71429C0.771429 12.8 0 13.52 0 14.4C0 15.28 0.771429 16 1.71429 16Z" fill="#6D8D9E"/>
</svg>
