<svg width="18" height="16" viewBox="0 0 18 16" fill="none" xmlns="http://www.w3.org/2000/svg">
<path fill-rule="evenodd" clip-rule="evenodd" d="M0 7.22417C0 5.53345 1.40562 4.16284 3.13953 4.16284H14.6233C15.8717 4.16284 16.8837 5.14968 16.8837 6.367V7.3486C17.5063 7.38381 18 7.88725 18 8.50313V11.6597C18 12.2756 17.5063 12.779 16.8837 12.8142V13.7958C16.8837 15.0132 15.8717 16 14.6233 16H3.13953C1.40561 16 0 14.6294 0 12.9387V7.22417ZM3.13953 5.38737C2.09918 5.38737 1.25581 6.20974 1.25581 7.22417V12.9387C1.25581 13.9531 2.09918 14.7755 3.13953 14.7755H14.6233C15.1781 14.7755 15.6279 14.3369 15.6279 13.7958V12.7482C15.6279 12.1323 16.1216 11.6289 16.7442 11.5936V8.56919C16.1216 8.53398 15.6279 8.03054 15.6279 7.41466V6.367C15.6279 5.82597 15.1781 5.38737 14.6233 5.38737H3.13953Z" fill="white"/>
<path fill-rule="evenodd" clip-rule="evenodd" d="M11.7209 8.85689C11.7209 8.06788 12.3769 7.42826 13.186 7.42826H16.5349C17.344 7.42826 18 8.06788 18 8.85689V11.306C18 12.095 17.344 12.7346 16.5349 12.7346H13.186C12.3769 12.7346 11.7209 12.095 11.7209 11.306V8.85689ZM13.186 8.6528C13.0705 8.6528 12.9767 8.74417 12.9767 8.85689V11.306C12.9767 11.4187 13.0705 11.51 13.186 11.51H16.5349C16.6505 11.51 16.7442 11.4187 16.7442 11.306V8.85689C16.7442 8.74417 16.6505 8.6528 16.5349 8.6528H13.186Z" fill="white"/>
<path fill-rule="evenodd" clip-rule="evenodd" d="M10.5443 1.33117C10.487 1.22876 10.3535 1.19392 10.2514 1.25475L5.37117 4.16284H12.1283L10.5443 1.33117ZM9.59658 0.209879C10.3112 -0.215937 11.2458 0.0279096 11.6468 0.744798L13.6697 4.36119C13.9284 4.82359 13.5852 5.38737 13.045 5.38737H3.43709C2.71839 5.38737 2.45274 4.46682 3.06601 4.10138L9.59658 0.209879Z" fill="white"/>
</svg>
