<svg width="16" height="16" viewBox="0 0 16 16" fill="none" xmlns="http://www.w3.org/2000/svg">
<path fill-rule="evenodd" clip-rule="evenodd" d="M5.54259 1.17087C4.7241 1.17082 4.02552 1.79144 3.89088 2.63828L3.75466 3.49508L3.65746 4.1064C3.6066 4.4263 3.34272 4.66075 3.03352 4.66075H2.7907C1.86594 4.66075 1.11628 5.44708 1.11628 6.41706V13.0728C1.11628 14.0428 1.86594 14.8291 2.7907 14.8291H13.2093C14.1341 14.8291 14.8837 14.0428 14.8837 13.0728V6.41706C14.8837 5.44708 14.1341 4.66075 13.2093 4.66075H12.9848C12.6744 4.66075 12.4098 4.42447 12.3604 4.10302L12.2668 3.49508L12.1363 2.64752C12.0053 1.79667 11.3051 1.17124 10.4834 1.17119L5.54259 1.17087ZM2.78981 2.44567C3.01421 1.03428 4.1785 -8.62079e-05 5.54266 5.38894e-09L10.4834 0.00031229C11.8529 0.000398829 13.02 1.04278 13.2383 2.46087L13.3975 3.49508L13.3977 3.49644C14.8511 3.59807 16 4.86684 16 6.41706V13.0728C16 14.6895 14.7506 16 13.2093 16H2.7907C1.24944 16 0 14.6895 0 13.0728V6.41706C0 4.85949 1.1598 3.58606 2.62296 3.49508L2.78981 2.44567Z" fill="white"/>
<path d="M3.75466 3.49508L3.65746 4.1064C3.6066 4.4263 3.34272 4.66075 3.03352 4.66075H12.9848C12.6744 4.66075 12.4098 4.42447 12.3604 4.10302L12.2668 3.49508H3.75466Z" fill="white"/>
<path fill-rule="evenodd" clip-rule="evenodd" d="M5.26633 9.14021C5.26633 8.81688 5.51622 8.55477 5.82447 8.55477H10.1743C10.4826 8.55477 10.7324 8.81688 10.7324 9.14021C10.7324 9.46354 10.4826 9.72565 10.1743 9.72565H5.82447C5.51622 9.72565 5.26633 9.46354 5.26633 9.14021Z" fill="white"/>
</svg>
