<svg width="16" height="16" viewBox="0 0 16 16" fill="none" xmlns="http://www.w3.org/2000/svg">
<path d="M8 0C3.58214 0 0 3.58214 0 8C0 12.4179 3.58214 16 8 16C12.4179 16 16 12.4179 16 8C16 3.58214 12.4179 0 8 0ZM8 14.6429C4.33214 14.6429 1.35714 11.6679 1.35714 8C1.35714 4.33214 4.33214 1.35714 8 1.35714C11.6679 1.35714 14.6429 4.33214 14.6429 8C14.6429 11.6679 11.6679 14.6429 8 14.6429Z" fill="#6D8D9E"/>
<path d="M9.99286 4.5125C9.45714 4.04286 8.75 3.78571 8 3.78571C7.25 3.78571 6.54286 4.04464 6.00714 4.5125C5.45 5 5.14286 5.65536 5.14286 6.35714V6.49286C5.14286 6.57143 5.20714 6.63571 5.28571 6.63571H6.14286C6.22143 6.63571 6.28571 6.57143 6.28571 6.49286V6.35714C6.28571 5.56964 7.05536 4.92857 8 4.92857C8.94464 4.92857 9.71429 5.56964 9.71429 6.35714C9.71429 6.9125 9.32143 7.42143 8.7125 7.65536C8.33393 7.8 8.0125 8.05357 7.78214 8.38571C7.54821 8.725 7.42679 9.13214 7.42679 9.54464V9.92857C7.42679 10.0071 7.49107 10.0714 7.56964 10.0714H8.42679C8.50536 10.0714 8.56964 10.0071 8.56964 9.92857V9.52321C8.57057 9.34986 8.62371 9.18081 8.72214 9.0381C8.82056 8.8954 8.95971 8.78566 9.12143 8.72321C10.175 8.31786 10.8554 7.38929 10.8554 6.35714C10.8571 5.65536 10.55 5 9.99286 4.5125ZM7.28571 11.9286C7.28571 12.118 7.36097 12.2997 7.49492 12.4336C7.62888 12.5676 7.81056 12.6429 8 12.6429C8.18944 12.6429 8.37112 12.5676 8.50508 12.4336C8.63903 12.2997 8.71429 12.118 8.71429 11.9286C8.71429 11.7391 8.63903 11.5574 8.50508 11.4235C8.37112 11.2895 8.18944 11.2143 8 11.2143C7.81056 11.2143 7.62888 11.2895 7.49492 11.4235C7.36097 11.5574 7.28571 11.7391 7.28571 11.9286Z" fill="#6D8D9E"/>
</svg>
