<svg width="488" height="285" viewBox="0 0 488 285" fill="none" xmlns="http://www.w3.org/2000/svg">
<path opacity="0.1" d="M401.659 269.898C432.445 277.692 463.719 259.053 471.512 228.268C479.305 197.482 460.667 166.208 429.881 158.415C399.096 150.622 367.822 169.261 360.029 200.046C352.235 230.831 370.874 262.105 401.659 269.898Z" fill="#1B1B25"/>
<path d="M397.218 262.585C428.004 270.378 459.278 251.74 467.071 220.954C474.864 190.169 456.226 158.895 425.44 151.102C394.655 143.308 363.381 161.947 355.588 192.732C347.795 223.518 366.433 254.792 397.218 262.585Z" fill="#FFB54A"/>
<path d="M399.943 251.825C375.222 245.567 360.163 220.298 366.421 195.578C372.679 170.858 397.947 155.798 422.667 162.056C447.388 168.314 462.447 193.583 456.189 218.303C449.931 243.023 424.76 258.107 399.943 251.825ZM421.931 164.964C398.762 159.099 375.194 173.145 369.329 196.314C363.464 219.483 377.51 243.051 400.679 248.916C423.848 254.782 447.416 240.736 453.281 217.567C459.146 194.397 445.1 170.83 421.931 164.964Z" fill="#FCF0E3"/>
<path d="M403.026 226.197C400.313 225.098 397.77 223.732 395.423 222.003C393.075 220.274 391.092 218.328 389.28 216.116L396.186 210.024C397.587 211.823 399.062 213.331 400.489 214.621C401.917 215.911 403.587 217.055 405.427 217.934L408.004 207.755C405.849 206.488 403.985 205.294 402.437 204.076C400.888 202.859 399.679 201.521 398.786 200.161C397.893 198.8 397.339 197.319 397.126 195.717C396.912 194.116 397.038 192.394 397.529 190.455C397.996 188.614 398.704 187.039 399.75 185.757C400.797 184.474 401.989 183.435 403.422 182.663C404.855 181.891 406.53 181.387 408.35 181.126C410.17 180.864 412.11 180.943 414.219 181.167L415.176 177.386L421.865 179.08L420.884 182.957C423.112 183.934 425.122 184.959 426.84 186.322C428.582 187.588 430.154 189.121 431.677 190.848L425.401 197.305C424.361 196.113 423.201 194.994 422.015 193.972C420.83 192.95 419.595 192.122 418.336 191.39L415.858 201.181C420.458 203.79 423.506 206.419 425.196 209.116C426.886 211.813 427.216 214.991 426.308 218.578L426.283 218.675C425.817 220.517 425.109 222.091 424.062 223.373C423.016 224.656 421.824 225.695 420.294 226.443C418.861 227.214 417.186 227.719 415.366 227.98C413.546 228.242 411.485 228.235 409.4 227.914L407.78 234.312L401.091 232.619L402.735 226.124L403.026 226.197ZM412.667 189.336C411.067 189.137 409.781 189.328 408.93 189.834C408.08 190.341 407.471 191.115 407.201 192.182L407.177 192.279C406.931 193.248 407.001 194.194 407.411 195.02C407.821 195.846 408.813 196.819 410.483 197.964L412.667 189.336ZM411.437 219.868C414.661 220.168 416.459 219.179 417.048 216.853L417.073 216.756C417.367 215.592 417.297 214.646 416.79 213.796C416.284 212.946 415.292 211.973 413.719 210.852L411.437 219.868Z" fill="#1B1B25"/>
<path opacity="0.1" d="M372.092 58.2391C386.273 55.9806 395.937 42.654 393.679 28.4734C391.42 14.2927 378.094 4.6278 363.913 6.88627C349.733 9.14474 340.068 22.4713 342.326 36.652C344.585 50.8327 357.911 60.4975 372.092 58.2391Z" fill="#1B1B25"/>
<path d="M368.886 55.9144C383.067 53.6559 392.732 40.3293 390.473 26.1486C388.215 11.968 374.888 2.3031 360.708 4.56156C346.527 6.82003 336.862 20.1466 339.121 34.3273C341.379 48.508 354.706 58.1728 368.886 55.9144Z" fill="#FFB54A"/>
<path d="M368.1 50.9765C356.743 52.7852 345.982 44.9806 344.173 33.6238C342.364 22.2669 350.169 11.5054 361.526 9.69671C372.882 7.88797 383.644 15.6925 385.453 27.0494C387.36 38.3905 379.556 49.152 368.1 50.9765ZM361.73 10.9805C351.064 12.6792 343.758 22.7537 345.457 33.4193C347.155 44.0849 357.23 51.3913 367.896 49.6926C378.561 47.994 385.867 37.9194 384.169 27.2539C382.47 16.5883 372.396 9.28189 361.73 10.9805Z" fill="#FCF0E3"/>
<path d="M364.81 39.8555C363.495 39.8624 362.164 39.7706 360.9 39.4656C359.636 39.1605 358.456 38.741 357.342 38.1083L359.178 34.3731C360.062 34.8398 360.931 35.2078 361.799 35.5757C362.652 35.8449 363.49 36.0153 364.41 36.0713L363.655 31.331C362.521 31.2078 361.585 31.0531 360.732 30.7839C359.879 30.5147 359.125 30.2298 358.553 29.8146C357.98 29.3995 357.491 28.8699 357.085 28.2258C356.678 27.5817 356.454 26.8073 356.328 26.0173L356.312 25.9185C356.186 25.1285 356.258 24.307 356.444 23.5685C356.63 22.8301 356.931 22.1746 357.445 21.5865C357.959 20.9983 358.488 20.5089 359.231 20.0868C359.974 19.6647 360.733 19.3414 361.705 19.0854L361.437 17.4065L364.499 16.919L364.782 18.6966C365.899 18.7211 366.918 18.7613 367.87 19.0148C368.822 19.2682 369.774 19.5217 370.658 19.9884L369.233 23.7594C368.578 23.4587 367.923 23.1581 367.283 22.9562C366.643 22.7543 365.92 22.6669 365.296 22.5637L366.02 27.1065C368.386 27.3373 370.19 27.8599 371.335 28.6902C372.48 29.5205 373.293 30.8087 373.544 32.3888L373.56 32.4875C373.686 33.2776 373.614 34.0991 373.428 34.8376C373.242 35.576 372.941 36.2315 372.427 36.8196C371.913 37.4078 371.384 37.8972 370.641 38.3192C369.898 38.7413 369.041 39.0804 368.168 39.3207L368.639 42.2834L365.282 42.8181L364.81 39.8555ZM362.286 22.7393C361.611 22.9482 361.05 23.2401 360.801 23.5835C360.552 23.927 360.417 24.3534 360.496 24.8472L360.511 24.946C360.59 25.4397 360.752 25.819 361.095 26.0681C361.439 26.3172 361.98 26.5348 362.916 26.6895L362.286 22.7393ZM367.191 35.7297C368.542 35.312 369.123 34.5106 368.966 33.523L368.95 33.4243C368.871 32.9305 368.611 32.5669 368.252 32.2191C367.908 31.97 367.269 31.7681 366.431 31.5977L367.092 35.7454L367.191 35.7297Z" fill="#222527"/>
<path d="M104.2 72H16.4C7.4 72 0 79.3 0 88.4C0 97.4 7.3 104.8 16.4 104.8H88.8L98.8 113.9V104.8H104.3C113.3 104.8 120.7 97.5 120.7 88.4C120.5 79.3 113.2 72 104.2 72Z" fill="#4E69FF"/>
<path d="M24.2999 86.0999C25.3999 85.0999 26.1999 83.6999 26.1999 82.0999C26.1999 79.1999 23.8999 76.8999 20.9999 76.8999C18.0999 76.8999 15.7999 79.1999 15.7999 82.0999C15.7999 83.6999 16.4999 85.0999 17.6999 86.0999C13.9999 87.4999 11.3999 90.9999 11.3999 95.0999C11.3999 100.4 30.5999 100.4 30.5999 95.0999C30.5999 90.9999 27.9999 87.4999 24.2999 86.0999Z" fill="#84D345"/>
<path d="M105.3 80.7998H42.3999C42.0999 80.7998 41.8999 80.5998 41.8999 80.2998C41.8999 79.9998 42.0999 79.7998 42.3999 79.7998H105.3C105.6 79.7998 105.8 79.9998 105.8 80.2998C105.8 80.5998 105.6 80.7998 105.3 80.7998Z" fill="white"/>
<path d="M95.4999 95.5996H42.3999C42.0999 95.5996 41.8999 95.3996 41.8999 95.0996C41.8999 94.7996 42.0999 94.5996 42.3999 94.5996H95.5999C95.8999 94.5996 96.0999 94.7996 96.0999 95.0996C95.9999 95.3996 95.7999 95.5996 95.4999 95.5996Z" fill="white"/>
<path d="M81.0999 88.6997H42.3999C42.0999 88.6997 41.8999 88.4997 41.8999 88.1997C41.8999 87.8997 42.0999 87.6997 42.3999 87.6997H81.0999C81.3999 87.6997 81.5999 87.8997 81.5999 88.1997C81.5999 88.3997 81.2999 88.6997 81.0999 88.6997Z" fill="white"/>
<path d="M105.3 88.6997H85.8999C85.5999 88.6997 85.3999 88.4997 85.3999 88.1997C85.3999 87.8997 85.5999 87.6997 85.8999 87.6997H105.3C105.6 87.6997 105.8 87.8997 105.8 88.1997C105.8 88.3997 105.6 88.6997 105.3 88.6997Z" fill="white"/>
<path d="M27.1996 93.6C26.7996 93.6 26.3996 93.5 26.0996 93.2L22.2996 89.4C21.6996 88.8 21.6996 87.9 22.2996 87.3C22.8996 86.7 23.7996 86.7 24.3996 87.3L27.0996 90L34.3996 82.7C34.9996 82.1 35.8996 82.1 36.4996 82.7C37.0996 83.3 37.0996 84.2 36.4996 84.8L28.1996 93.1C27.9996 93.5 27.5996 93.6 27.1996 93.6Z" fill="white"/>
<path d="M57.3 191H112.5C118.2 191 122.8 195.6 122.8 201.3C122.8 207 118.2 211.6 112.5 211.6H60.7H57.3C51.6 211.6 47 207 47 201.3C47 195.6 51.6 191 57.3 191Z" fill="url(#paint0_linear_242_6970)"/>
<path d="M106.2 198H63.3999C63.0999 198 62.8999 197.8 62.8999 197.5C62.8999 197.2 63.0999 197 63.3999 197H106.2C106.5 197 106.7 197.2 106.7 197.5C106.7 197.7 106.5 198 106.2 198Z" fill="white"/>
<path d="M99.5999 205.7H63.3999C63.0999 205.7 62.8999 205.5 62.8999 205.2C62.8999 204.9 63.0999 204.7 63.3999 204.7H99.4999C99.7999 204.7 99.9999 204.9 99.9999 205.2C99.9999 205.5 99.8999 205.7 99.5999 205.7Z" fill="white"/>
<path d="M89.6999 202.1H63.3999C63.0999 202.1 62.8999 201.9 62.8999 201.6C62.8999 201.3 63.0999 201.1 63.3999 201.1H89.6999C89.9999 201.1 90.1999 201.3 90.1999 201.6C90.1999 201.9 89.9999 202.1 89.6999 202.1Z" fill="white"/>
<path d="M106.2 202.1H93C92.7 202.1 92.5 201.9 92.5 201.6C92.5 201.3 92.7 201.1 93 201.1H106.2C106.5 201.1 106.7 201.3 106.7 201.6C106.7 201.9 106.5 202.1 106.2 202.1Z" fill="white"/>
<path d="M363.729 117.438L324.119 44.1446L319.476 33.1802C319.476 33.1802 303.079 -4.94813 289.744 6.2138C289.744 6.2138 289.744 6.31257 289.843 6.51013C289.349 5.91746 288.855 5.52235 288.262 5.22602C287.373 4.8309 286.287 4.73213 285.398 5.12724C283.62 6.01624 282.928 8.4857 283.916 10.56L295.276 34.8595C294.683 33.9705 292.609 32.5876 292.016 32.0937C290.732 31.0071 289.448 30.1181 287.966 29.4267C285.398 28.3401 282.336 28.6364 280.755 31.1059C280.459 31.501 280.261 31.9949 280.36 32.4888C280.459 32.9827 280.854 33.279 281.15 33.5753C284.41 36.5387 287.867 39.1069 291.028 42.169C291.028 42.169 291.72 48.9847 297.646 53.1334C301.104 55.5041 302.684 58.1711 303.375 59.4552H303.277L317.6 109.338L296.659 109.635V149.541H342.887C346.838 149.541 350.493 148.454 353.654 146.676C353.851 146.578 353.95 146.578 354.147 146.479C365.013 141.244 369.261 128.106 363.729 117.438Z" fill="#FEC29E"/>
<path opacity="0.17" d="M330.243 149.64C334.787 149.541 330.243 149.64 330.243 149.64C330.243 149.64 319.476 120.698 317.6 109.338C310.488 109.338 309.401 109.635 302.289 109.635L330.243 149.64Z" fill="#FF887C"/>
<path d="M306.24 37.3293C306.042 37.3293 305.944 37.2305 305.845 37.1317C301.4 31.1062 295.671 34.1684 295.374 34.3659C295.177 34.4647 294.88 34.3659 294.683 34.1684C294.584 33.9708 294.683 33.6745 294.88 33.4769C294.979 33.4769 301.597 29.8221 306.635 36.539C306.833 36.7366 306.734 37.0329 306.536 37.2305C306.437 37.3293 306.339 37.3293 306.24 37.3293Z" fill="#FB8E77"/>
<path d="M289.942 5.91783C291.127 7.10317 292.213 8.38729 293.3 9.67141C294.288 10.9555 295.276 12.3384 296.165 13.8201C297.054 15.3018 297.745 16.7834 298.338 18.3639C298.93 19.9443 299.325 21.6236 299.424 23.4016C299.424 23.6979 299.227 23.8955 298.93 23.8955C298.634 23.8955 298.436 23.6979 298.436 23.4016C298.338 21.8211 298.041 20.2407 297.449 18.6602C296.856 17.0798 296.165 15.5981 295.374 14.2152C294.584 12.7335 293.596 11.4494 292.609 10.0665C291.621 8.7824 290.534 7.49829 289.448 6.31295C289.349 6.21417 289.349 6.01661 289.448 5.91783C289.645 5.81906 289.744 5.81906 289.942 5.91783Z" fill="#FB8E77"/>
<path d="M293.201 4.04091C294.782 4.83114 295.967 6.11526 297.054 7.39937C298.14 8.68349 299.128 10.1652 299.918 11.6468C300.708 13.1285 301.4 14.709 302.091 16.1906L302.98 18.5613L303.77 20.932C303.869 21.2283 303.672 21.4259 303.474 21.5247C303.178 21.6234 302.98 21.4259 302.881 21.2283L302.091 18.8576L301.202 16.487C300.61 14.9065 299.918 13.4248 299.128 11.9432C298.338 10.4615 297.449 9.0786 296.461 7.79449C295.473 6.51037 294.288 5.32503 292.905 4.5348C292.707 4.43603 292.707 4.23848 292.806 4.1397C292.905 4.04092 293.102 3.94214 293.201 4.04091Z" fill="#FB8E77"/>
<path d="M298.634 4.93004C299.721 5.81904 300.708 6.80683 301.696 7.89339C302.585 8.97995 303.474 10.0665 304.264 11.2518C305.055 12.4372 305.746 13.6225 306.339 14.9066C306.931 16.1907 307.425 17.4749 307.82 18.8578C307.919 19.1541 307.722 19.3517 307.524 19.4504C307.228 19.5492 307.03 19.3517 306.931 19.1541C306.536 17.87 306.141 16.5859 305.647 15.3017C305.153 14.0176 304.462 12.8323 303.77 11.647C303.079 10.4616 302.289 9.37506 301.4 8.2885C300.511 7.20194 299.523 6.21416 298.535 5.32515C298.436 5.22638 298.436 5.02882 298.535 4.93004C298.338 4.83126 298.535 4.83126 298.634 4.93004Z" fill="#FB8E77"/>
<path opacity="0.18" d="M301.4 56.7884L316.711 54.9116L307.228 73.6795C307.228 73.6795 304.462 59.7518 301.4 56.7884Z" fill="#FF887C"/>
<path d="M239.96 109.734C239.762 109.734 239.466 109.734 239.268 109.734H190.966C180.495 109.734 171.507 116.352 168.049 125.538L167.951 125.736V125.835L147.405 181.842L166.469 184.212V246.443H270.285L278.088 149.64H296.165V109.536L239.96 109.734Z" fill="#66DE64"/>
<path opacity="0.05" d="M296.659 109.536L241.541 109.734C262.185 110.623 278.681 127.613 278.681 148.554L278.582 149.64H296.659V109.536Z" fill="#1B1B25"/>
<path d="M277.397 152.307L257.839 148.454C255.567 147.961 253.295 149.541 252.801 151.813L248.949 171.47L243.911 196.955C243.417 199.226 244.998 201.498 247.269 201.992L255.27 203.573L266.828 205.845C269.099 206.338 271.371 204.758 271.865 202.486L273.742 192.806L276.903 177.1L280.854 157.344C281.15 154.974 279.669 152.702 277.397 152.307Z" fill="#1B1B25"/>
<path d="M279.372 178.483C279.175 177.99 278.78 177.594 278.286 177.298C278.187 177.199 278.088 177.101 278.088 176.903C278.088 176.903 277.891 176.903 277.594 177.002C277.298 176.903 276.903 176.903 276.508 176.903C272.557 177.199 263.173 177.99 257.345 178.385C254.184 178.582 251.122 177.99 248.356 176.508L247.862 176.31L248.85 171.47C247.862 172.754 246.776 173.94 245.689 175.125C245.096 175.125 241.935 175.421 238.873 177.693C237.787 178.483 236.7 179.57 235.712 180.953C234.527 182.731 233.243 183.916 232.156 184.706C231.564 185.2 230.971 185.497 230.477 185.694V185.595L187.015 196.362L186.817 196.461L188.99 186.682L148.985 181.842L140.194 220.168C137.527 231.824 144.738 243.381 156.394 246.048C160.542 247.035 164.691 246.443 168.346 244.862C169.037 244.566 169.729 244.368 170.42 243.973L244.01 207.722L253.986 203.968C253.986 203.968 254.381 203.771 255.073 203.474H254.974C259.617 201.598 285.2 190.633 279.372 178.483Z" fill="#FEC29E"/>
<path opacity="0.17" d="M142.565 209.598C142.565 209.796 142.466 209.895 142.466 209.993C142.466 209.895 142.466 209.697 142.565 209.598Z" fill="#FF887C"/>
<path opacity="0.17" d="M186.817 196.658C187.706 192.51 187.41 192.905 188.793 186.879L142.762 208.018C142.762 208.018 147.306 206.635 153.628 204.956C154.22 204.758 154.813 204.561 155.406 204.363L186.817 196.658Z" fill="#FF887C"/>
<path opacity="0.17" d="M142.664 209.006C142.664 209.203 142.565 209.401 142.565 209.599C142.565 209.401 142.565 209.203 142.664 209.006Z" fill="#FF887C"/>
<path opacity="0.17" d="M142.861 208.018C142.762 208.413 142.762 208.71 142.664 209.006C142.762 208.512 142.861 208.018 142.861 208.018Z" fill="#FF887C"/>
<path opacity="0.35" d="M192.547 187.373C192.448 187.373 192.448 187.373 192.547 187.373L183.755 186.287C183.459 186.287 183.261 185.99 183.36 185.694C183.36 185.398 183.657 185.2 183.953 185.299L192.25 186.287L196.893 156.95C196.893 156.653 197.189 156.456 197.485 156.555C197.782 156.555 197.979 156.851 197.881 157.147L193.238 186.978C192.942 187.176 192.744 187.373 192.547 187.373Z" fill="#1B1B25"/>
<path opacity="0.08" d="M202.721 192.509L222.476 192.015C226.131 192.509 231.959 189.151 231.366 185.496L202.721 192.509Z" fill="#FF887C"/>
<path d="M264.852 97.189L258.135 51.5535C257.444 46.5158 255.962 41.8732 253.888 37.527L257.542 36.9343C257.542 36.9343 254.974 -0.10752 213.487 8.78251C209.437 8.3874 205.19 8.3874 200.943 9.07885C180.792 12.0422 166.765 30.81 169.729 50.9608L173.68 77.5321C176.643 97.6829 195.411 111.709 215.562 108.746L261.296 102.029C263.667 101.535 265.247 99.4609 264.852 97.189Z" fill="#1B1B25"/>
<path d="M237.392 35.4528C237.194 35.4528 236.898 35.2553 236.898 35.0577C236.898 34.7614 237.096 34.5638 237.293 34.465L250.628 32.687C250.727 32.687 250.826 32.5883 250.924 32.4895C250.924 32.4895 251.023 32.2919 251.023 32.1931C248.85 20.1422 237.787 14.6106 237.688 14.5119C237.491 14.4131 237.293 14.1167 237.491 13.8204C237.589 13.6228 237.886 13.4253 238.182 13.6228C238.281 13.7216 249.838 19.4508 252.11 31.9956C252.209 32.3907 252.11 32.687 251.912 33.0821C251.715 33.3785 251.32 33.576 251.023 33.6748L237.392 35.4528Z" fill="#FCF0E3"/>
<path d="M250.233 38.021L213.685 43.8489L204.795 30.7114C206.573 45.3306 195.707 54.8133 195.707 54.8133C195.707 54.8133 195.608 54.6157 195.411 54.4182L195.114 54.517C189.385 55.6035 185.632 61.1351 186.62 66.8642C187.706 72.5934 193.238 76.3469 198.967 75.3591L199.658 75.2604C200.942 80.792 203.708 85.5333 207.56 89.0893V112.5C207.56 120.797 214.376 127.613 222.674 127.613C230.971 127.613 237.787 120.797 237.787 112.5V94.0282C243.812 91.2624 248.553 86.4223 251.22 80.5944C254.48 75.1616 255.863 68.4447 254.579 61.7278L250.233 38.021Z" fill="#FEC29E"/>
<path opacity="0.32" d="M232.946 93.2379C219.414 95.8061 206.276 87.8051 202.226 74.9639C202.127 74.5688 199.658 75.0627 199.757 75.359C201.041 80.7918 203.905 85.5332 207.758 89.0892C208.449 96.7939 214.969 102.819 222.772 102.819C228.6 102.819 233.638 99.4609 236.107 94.7196C242.923 92.1513 248.356 86.9161 251.22 80.4955C247.368 86.9161 240.947 91.7562 232.946 93.2379Z" fill="#FF887C"/>
<path d="M194.028 68.4443C193.93 68.4443 193.732 68.3455 193.633 68.2467C193.436 68.0492 193.534 67.7528 193.732 67.5553L196.992 64.987L192.843 61.0359C192.645 60.8383 192.645 60.542 192.843 60.3445C193.041 60.1469 193.337 60.1469 193.534 60.3445L198.177 64.6907C198.276 64.7895 198.375 64.8883 198.375 65.0858C198.375 65.1846 198.276 65.3821 198.177 65.4809L194.423 68.3455C194.226 68.3455 194.127 68.4443 194.028 68.4443Z" fill="#FB8E77"/>
<path d="M220.303 50.3678C220.699 50.3678 221.192 50.0715 221.686 49.8739C222.18 49.6764 222.575 49.38 222.97 49.1825C223.366 48.9849 223.859 48.7874 224.353 48.5898C224.847 48.3923 225.341 48.1947 225.637 47.8984C225.934 47.602 225.835 47.1081 225.242 46.8118C224.65 46.5155 223.366 46.4167 221.983 47.0094C220.6 47.602 219.908 48.6886 219.711 49.38C219.513 50.0715 219.908 50.4666 220.303 50.3678Z" fill="#1B1B25"/>
<path d="M246.48 45.8241C246.085 45.9229 245.591 45.8241 244.998 45.7253C244.504 45.6265 244.01 45.5278 243.516 45.429C243.121 45.3302 242.528 45.3302 242.035 45.2314C241.541 45.1326 241.047 45.1327 240.652 44.9351C240.257 44.7375 240.257 44.2436 240.75 43.7497C241.244 43.2559 242.43 42.8607 243.911 43.0583C245.393 43.2559 246.381 44.0461 246.677 44.6388C247.171 45.3302 246.974 45.7253 246.48 45.8241Z" fill="#1B1B25"/>
<path d="M231.762 70.8152C227.712 70.8152 225.045 67.6543 224.946 67.5555C224.749 67.3579 224.847 67.0616 225.045 66.864C225.242 66.6665 225.539 66.7652 225.736 66.9628C225.934 67.1604 229.687 71.5066 234.923 69.1359C235.219 69.0372 235.417 69.1359 235.614 69.3335C235.713 69.6298 235.614 69.8274 235.417 70.0249C234.034 70.6176 232.848 70.8152 231.762 70.8152Z" fill="#FB8E77"/>
<path d="M234.626 63.9007C234.428 63.9007 234.231 63.7031 234.132 63.5056C234.033 63.2092 234.231 63.0117 234.527 62.9129L237.984 62.2214C240.158 61.8263 241.541 59.6532 241.145 57.5789C240.948 56.7886 240.256 56.2948 239.466 56.4923C237.688 56.8874 235.91 55.7021 235.515 53.8253L234.725 49.5778C234.626 49.2815 234.824 49.0839 235.12 48.9852C235.416 48.8864 235.614 49.084 235.713 49.3803L236.503 53.6277C236.799 54.9119 237.984 55.8009 239.269 55.5045C239.861 55.4058 240.553 55.5045 241.047 55.8996C241.541 56.2948 241.936 56.7886 242.034 57.4801C242.528 60.1471 240.849 62.8141 238.083 63.308L234.626 63.9007C234.725 63.9007 234.725 63.9007 234.626 63.9007Z" fill="#FB8E77"/>
<path d="M224.847 58.7639C224.156 58.8626 223.563 58.4675 223.464 57.7761L223.168 56.2944C223.069 55.603 223.464 55.0103 224.156 54.9115C224.847 54.8127 225.44 55.2078 225.539 55.8993L225.835 57.381C225.934 57.9736 225.44 58.5663 224.847 58.7639Z" fill="#1B1B25"/>
<path d="M245.492 55.4054C244.801 55.5042 244.208 55.1091 244.109 54.4177L243.813 52.936C243.714 52.2445 244.109 51.6519 244.801 51.5531C245.492 51.4543 246.085 51.8494 246.184 52.5409L246.48 54.0226C246.677 54.6152 246.184 55.2079 245.492 55.4054Z" fill="#1B1B25"/>
<path opacity="0.17" d="M223.958 64.1969L219.81 64.6908C219.019 64.7896 218.229 64.1969 218.13 63.3079C218.032 62.5176 218.624 61.7274 219.513 61.6286L223.662 61.1348C224.452 61.036 225.242 61.6286 225.341 62.5176C225.341 63.4066 224.749 64.1969 223.958 64.1969Z" fill="#FF887C"/>
<path opacity="0.17" d="M252.011 59.8507L247.862 60.3446C247.072 60.4433 246.282 59.8507 246.183 58.9617C246.084 58.1715 246.677 57.3812 247.566 57.2825L251.715 56.7886C252.505 56.6898 253.295 57.2824 253.394 58.1715C253.394 58.9617 252.801 59.7519 252.011 59.8507Z" fill="#FF887C"/>
<path d="M239.664 81.5818C239.565 81.5818 239.466 81.5818 239.368 81.4831C237.392 80.1002 235.416 81.3843 235.318 81.4831C235.12 81.6806 234.824 81.5818 234.626 81.3843C234.429 81.1867 234.527 80.8904 234.725 80.6928C235.614 80.0014 237.886 79.2112 239.96 80.6928C240.158 80.8904 240.257 81.1867 240.059 81.3843C239.96 81.4831 239.763 81.5818 239.664 81.5818Z" fill="#FB8E77"/>
<defs>
<linearGradient id="paint0_linear_242_6970" x1="121.717" y1="181.804" x2="44.7503" y2="189.049" gradientUnits="userSpaceOnUse">
<stop stop-color="#83D343"/>
<stop offset="1" stop-color="#89D54E"/>
</linearGradient>
</defs>
</svg>
