<svg width="172" height="166" viewBox="0 0 172 166" fill="none" xmlns="http://www.w3.org/2000/svg">
<circle cx="5" cy="-1" r="4" fill="#DFE6ED"/>
<circle cx="23" cy="-1" r="5" fill="#DFE6ED"/>
<circle cx="41" cy="-1" r="3" fill="#DFE6ED"/>
<circle cx="59" cy="-1" r="4" fill="#DFE6ED"/>
<circle cx="77" cy="-1" r="4" fill="#DFE6ED"/>
<circle cx="95" cy="-1" r="5" fill="#DFE6ED"/>
<circle cx="113" cy="-1" r="4" fill="#DFE6ED"/>
<circle cx="131" cy="-1" r="4" fill="#DFE6ED"/>
<circle cx="149" cy="-1" r="4" fill="#DFE6ED"/>
<circle cx="167" cy="-1" r="5" fill="#DFE6ED"/>
<circle cx="5" cy="17" r="4" fill="#DFE6ED"/>
<circle cx="23" cy="17" r="4" fill="#DFE6ED"/>
<circle cx="41" cy="17" r="4" fill="#DFE6ED"/>
<circle cx="59" cy="17" r="6" fill="#DFE6ED"/>
<circle cx="77" cy="17" r="4" fill="#DFE6ED"/>
<circle cx="95" cy="17" r="3" fill="#DFE6ED"/>
<circle cx="113" cy="17" r="4" fill="#DFE6ED"/>
<circle cx="131" cy="17" r="5" fill="#DFE6ED"/>
<circle cx="149" cy="17" r="4" fill="#DFE6ED"/>
<circle cx="167" cy="17" r="2" fill="#DFE6ED"/>
<circle cx="5" cy="35" r="4" fill="#DFE6ED"/>
<circle cx="23" cy="35" r="6" fill="#DFE6ED"/>
<circle cx="41" cy="35" r="4" fill="#DFE6ED"/>
<circle cx="59" cy="35" r="4" fill="#DFE6ED"/>
<circle cx="77" cy="35" r="4" fill="#DFE6ED"/>
<circle cx="95" cy="35" r="4" fill="#DFE6ED"/>
<circle cx="113" cy="35" r="4" fill="#DFE6ED"/>
<circle cx="131" cy="35" r="4" fill="#DFE6ED"/>
<circle cx="149" cy="35" r="4" fill="#DFE6ED"/>
<circle cx="5" cy="53" r="5" fill="#DFE6ED"/>
<circle cx="23" cy="53" r="4" fill="#DFE6ED"/>
<circle cx="41" cy="53" r="4" fill="#DFE6ED"/>
<circle cx="59" cy="53" r="4" fill="#DFE6ED"/>
<circle cx="77" cy="53" r="4" fill="#DFE6ED"/>
<circle cx="95" cy="53" r="4" fill="#DFE6ED"/>
<circle cx="113" cy="53" r="4" fill="#DFE6ED"/>
<circle cx="131" cy="53" r="4" fill="#DFE6ED"/>
<circle cx="149" cy="53" r="4" fill="#DFE6ED"/>
<circle cx="167" cy="53" r="4" fill="#DFE6ED"/>
<circle cx="5" cy="71" r="4" fill="#DFE6ED"/>
<circle cx="23" cy="71" r="3" fill="#DFE6ED"/>
<circle cx="41" cy="71" r="4" fill="#DFE6ED"/>
<circle cx="59" cy="71" r="4" fill="#DFE6ED"/>
<circle cx="77" cy="71" r="4" fill="#DFE6ED"/>
<circle cx="95" cy="71" r="4" fill="#DFE6ED"/>
<circle cx="113" cy="71" r="4" fill="#DFE6ED"/>
<circle cx="131" cy="71" r="4" fill="#DFE6ED"/>
<circle cx="149" cy="71" r="4" fill="#DFE6ED"/>
<circle cx="167" cy="71" r="4" fill="#DFE6ED"/>
<circle cx="5" cy="89" r="5" fill="#DFE6ED"/>
<circle cx="23" cy="89" r="4" fill="#DFE6ED"/>
<circle cx="41" cy="89" r="4" fill="#DFE6ED"/>
<circle cx="59" cy="89" r="4" fill="#DFE6ED"/>
<circle cx="77" cy="89" r="4" fill="#DFE6ED"/>
<circle cx="95" cy="89" r="4" fill="#DFE6ED"/>
<circle cx="113" cy="89" r="4" fill="#DFE6ED"/>
<circle cx="131" cy="89" r="4" fill="#DFE6ED"/>
<circle cx="149" cy="89" r="4" fill="#DFE6ED"/>
<circle cx="167" cy="89" r="4" fill="#DFE6ED"/>
<circle cx="5" cy="107" r="4" fill="#DFE6ED"/>
<circle cx="23" cy="107" r="3" fill="#DFE6ED"/>
<circle cx="41" cy="107" r="4" fill="#DFE6ED"/>
<circle cx="59" cy="107" r="4" fill="#DFE6ED"/>
<circle cx="77" cy="107" r="4" fill="#DFE6ED"/>
<circle cx="95" cy="107" r="4" fill="#DFE6ED"/>
<circle cx="113" cy="107" r="4" fill="#DFE6ED"/>
<circle cx="131" cy="107" r="4" fill="#DFE6ED"/>
<circle cx="149" cy="107" r="4" fill="#DFE6ED"/>
<circle cx="167" cy="107" r="4" fill="#DFE6ED"/>
<circle cx="5" cy="125" r="5" fill="#DFE6ED"/>
<circle cx="23" cy="125" r="4" fill="#DFE6ED"/>
<circle cx="41" cy="125" r="4" fill="#DFE6ED"/>
<circle cx="59" cy="125" r="4" fill="#DFE6ED"/>
<circle cx="77" cy="125" r="4" fill="#DFE6ED"/>
<circle cx="95" cy="125" r="4" fill="#DFE6ED"/>
<circle cx="113" cy="125" r="4" fill="#DFE6ED"/>
<circle cx="131" cy="125" r="4" fill="#DFE6ED"/>
<circle cx="149" cy="125" r="4" fill="#DFE6ED"/>
<circle cx="167" cy="125" r="4" fill="#DFE6ED"/>
<circle cx="5" cy="143" r="4" fill="#DFE6ED"/>
<circle cx="23" cy="143" r="5" fill="#DFE6ED"/>
<circle cx="41" cy="143" r="3" fill="#DFE6ED"/>
<circle cx="59" cy="143" r="7" fill="#DFE6ED"/>
<circle cx="5" cy="161" r="5" fill="#DFE6ED"/>
<circle cx="23" cy="161" r="3" fill="#DFE6ED"/>
</svg>
