<svg width="169" height="166" viewBox="0 0 169 166" fill="none" xmlns="http://www.w3.org/2000/svg">
<circle cx="41" cy="161" r="4" transform="rotate(-180 41 161)" fill="#DFE6ED"/>
<circle cx="23" cy="161" r="4" transform="rotate(-180 23 161)" fill="#DFE6ED"/>
<circle cx="5" cy="161" r="5" transform="rotate(-180 5 161)" fill="#DFE6ED"/>
<circle cx="95" cy="143" r="4" transform="rotate(-180 95 143)" fill="#DFE6ED"/>
<circle cx="77" cy="143" r="3" transform="rotate(-180 77 143)" fill="#DFE6ED"/>
<circle cx="59" cy="143" r="4" transform="rotate(-180 59 143)" fill="#DFE6ED"/>
<circle cx="41" cy="143" r="5" transform="rotate(-180 41 143)" fill="#DFE6ED"/>
<circle cx="23" cy="143" r="4" transform="rotate(-180 23 143)" fill="#DFE6ED"/>
<circle cx="5" cy="143" r="2" transform="rotate(-180 5 143)" fill="#DFE6ED"/>
<circle cx="131" cy="125" r="4" transform="rotate(-180 131 125)" fill="#DFE6ED"/>
<circle cx="113" cy="125" r="4" transform="rotate(-180 113 125)" fill="#DFE6ED"/>
<circle cx="95" cy="125" r="4" transform="rotate(-180 95 125)" fill="#DFE6ED"/>
<circle cx="77" cy="125" r="4" transform="rotate(-180 77 125)" fill="#DFE6ED"/>
<circle cx="59" cy="125" r="4" transform="rotate(-180 59 125)" fill="#DFE6ED"/>
<circle cx="41" cy="125" r="4" transform="rotate(-180 41 125)" fill="#DFE6ED"/>
<circle cx="23" cy="125" r="4" transform="rotate(-180 23 125)" fill="#DFE6ED"/>
<circle cx="149" cy="107" r="4" transform="rotate(-180 149 107)" fill="#DFE6ED"/>
<circle cx="131" cy="107" r="4" transform="rotate(-180 131 107)" fill="#DFE6ED"/>
<circle cx="113" cy="107" r="4" transform="rotate(-180 113 107)" fill="#DFE6ED"/>
<circle cx="95" cy="107" r="4" transform="rotate(-180 95 107)" fill="#DFE6ED"/>
<circle cx="77" cy="107" r="4" transform="rotate(-180 77 107)" fill="#DFE6ED"/>
<circle cx="59" cy="107" r="4" transform="rotate(-180 59 107)" fill="#DFE6ED"/>
<circle cx="41" cy="107" r="4" transform="rotate(-180 41 107)" fill="#DFE6ED"/>
<circle cx="23" cy="107" r="4" transform="rotate(-180 23 107)" fill="#DFE6ED"/>
<circle cx="5" cy="107" r="4" transform="rotate(-180 5 107)" fill="#DFE6ED"/>
<circle cx="149" cy="89" r="3" transform="rotate(-180 149 89)" fill="#DFE6ED"/>
<circle cx="131" cy="89" r="4" transform="rotate(-180 131 89)" fill="#DFE6ED"/>
<circle cx="113" cy="89" r="4" transform="rotate(-180 113 89)" fill="#DFE6ED"/>
<circle cx="95" cy="89" r="4" transform="rotate(-180 95 89)" fill="#DFE6ED"/>
<circle cx="77" cy="89" r="4" transform="rotate(-180 77 89)" fill="#DFE6ED"/>
<circle cx="59" cy="89" r="4" transform="rotate(-180 59 89)" fill="#DFE6ED"/>
<circle cx="41" cy="89" r="4" transform="rotate(-180 41 89)" fill="#DFE6ED"/>
<circle cx="23" cy="89" r="4" transform="rotate(-180 23 89)" fill="#DFE6ED"/>
<circle cx="5" cy="89" r="4" transform="rotate(-180 5 89)" fill="#DFE6ED"/>
<circle cx="167" cy="71" r="5" transform="rotate(-180 167 71)" fill="#DFE6ED"/>
<circle cx="149" cy="71" r="4" transform="rotate(-180 149 71)" fill="#DFE6ED"/>
<circle cx="131" cy="71" r="4" transform="rotate(-180 131 71)" fill="#DFE6ED"/>
<circle cx="113" cy="71" r="4" transform="rotate(-180 113 71)" fill="#DFE6ED"/>
<circle cx="95" cy="71" r="4" transform="rotate(-180 95 71)" fill="#DFE6ED"/>
<circle cx="77" cy="71" r="4" transform="rotate(-180 77 71)" fill="#DFE6ED"/>
<circle cx="59" cy="71" r="4" transform="rotate(-180 59 71)" fill="#DFE6ED"/>
<circle cx="41" cy="71" r="4" transform="rotate(-180 41 71)" fill="#DFE6ED"/>
<circle cx="23" cy="71" r="4" transform="rotate(-180 23 71)" fill="#DFE6ED"/>
<circle cx="5" cy="71" r="4" transform="rotate(-180 5 71)" fill="#DFE6ED"/>
<circle cx="167" cy="53" r="4" transform="rotate(-180 167 53)" fill="#DFE6ED"/>
<circle cx="149" cy="53" r="3" transform="rotate(-180 149 53)" fill="#DFE6ED"/>
<circle cx="131" cy="53" r="4" transform="rotate(-180 131 53)" fill="#DFE6ED"/>
<circle cx="113" cy="53" r="4" transform="rotate(-180 113 53)" fill="#DFE6ED"/>
<circle cx="95" cy="53" r="4" transform="rotate(-180 95 53)" fill="#DFE6ED"/>
<circle cx="77" cy="53" r="4" transform="rotate(-180 77 53)" fill="#DFE6ED"/>
<circle cx="59" cy="53" r="4" transform="rotate(-180 59 53)" fill="#DFE6ED"/>
<circle cx="41" cy="53" r="4" transform="rotate(-180 41 53)" fill="#DFE6ED"/>
<circle cx="23" cy="53" r="4" transform="rotate(-180 23 53)" fill="#DFE6ED"/>
<circle cx="5" cy="53" r="4" transform="rotate(-180 5 53)" fill="#DFE6ED"/>
<circle cx="167" cy="35" r="5" transform="rotate(-180 167 35)" fill="#DFE6ED"/>
<circle cx="149" cy="35" r="4" transform="rotate(-180 149 35)" fill="#DFE6ED"/>
<circle cx="131" cy="35" r="4" transform="rotate(-180 131 35)" fill="#DFE6ED"/>
<circle cx="113" cy="35" r="4" transform="rotate(-180 113 35)" fill="#DFE6ED"/>
<circle cx="95" cy="35" r="4" transform="rotate(-180 95 35)" fill="#DFE6ED"/>
<circle cx="77" cy="35" r="4" transform="rotate(-180 77 35)" fill="#DFE6ED"/>
<circle cx="59" cy="35" r="4" transform="rotate(-180 59 35)" fill="#DFE6ED"/>
<circle cx="41" cy="35" r="4" transform="rotate(-180 41 35)" fill="#DFE6ED"/>
<circle cx="23" cy="35" r="4" transform="rotate(-180 23 35)" fill="#DFE6ED"/>
<circle cx="5" cy="35" r="4" transform="rotate(-180 5 35)" fill="#DFE6ED"/>
<circle cx="167" cy="17" r="4" transform="rotate(-180 167 17)" fill="#DFE6ED"/>
<circle cx="149" cy="17" r="5" transform="rotate(-180 149 17)" fill="#DFE6ED"/>
<circle cx="131" cy="17" r="3" transform="rotate(-180 131 17)" fill="#DFE6ED"/>
<circle cx="113" cy="17" r="7" transform="rotate(-180 113 17)" fill="#DFE6ED"/>
<circle cx="167" cy="-1" r="5" transform="rotate(-180 167 -1)" fill="#DFE6ED"/>
<circle cx="149" cy="-1" r="3" transform="rotate(-180 149 -1)" fill="#DFE6ED"/>
</svg>
