<svg width="1616" height="225" viewBox="0 0 1616 225" fill="none" xmlns="http://www.w3.org/2000/svg">
<mask id="mask0_242_6875" style="mask-type:alpha" maskUnits="userSpaceOnUse" x="0" y="0" width="1616" height="224">
<rect width="1616" height="224" rx="16" fill="white"/>
</mask>
<g mask="url(#mask0_242_6875)">
<path opacity="0.5" fill-rule="evenodd" clip-rule="evenodd" d="M1291.92 -113.701C1321.37 -109.146 1346.93 -96.006 1372.96 -81.5335C1403.04 -64.8148 1446.81 -56.4628 1454.94 -23.0809C1463.17 10.6773 1421.18 35.1759 1409.36 67.8519C1398.16 98.805 1412.48 139.694 1388.04 161.785C1363.5 183.961 1324.74 178.353 1291.92 173.983C1262.53 170.07 1236.05 156.805 1212.8 138.45C1190.37 120.746 1177.79 95.8249 1162.42 71.7616C1140.74 37.8118 1098.49 8.83315 1104.6 -30.9604C1110.63 -70.2446 1153.89 -93.6964 1190.31 -109.783C1222.08 -123.817 1257.58 -119.012 1291.92 -113.701Z" fill="#F1F5F9"/>
<path opacity="0.5" fill-rule="evenodd" clip-rule="evenodd" d="M1512.7 87.5262C1541.96 81.319 1573.15 94.8224 1596.17 113.963C1618.41 132.459 1627.83 161.203 1635.03 189.252C1641.83 215.724 1643.66 242.993 1636.06 269.244C1628.26 296.154 1615.8 323.77 1591.86 338.264C1568.65 352.32 1538.96 350.735 1512.7 343.953C1490.4 338.194 1478.74 314.821 1458.5 303.822C1433.22 290.084 1394.57 297.258 1380.5 272.121C1366.72 247.502 1381.55 215.5 1395.27 190.851C1407.38 169.115 1432.81 161.077 1451.48 144.653C1472.96 125.754 1484.73 93.4578 1512.7 87.5262Z" fill="#F1F5F9"/>
<path opacity="0.5" fill-rule="evenodd" clip-rule="evenodd" d="M303.321 -150.495C333.334 -146.634 359.072 -130.904 383.671 -113.303C408.439 -95.5816 432.879 -76.7185 445.277 -48.9252C458.604 -19.0507 465.339 15.3168 454.873 46.3068C444.46 77.1422 417.804 99.4001 389.652 115.791C363.572 130.975 333.162 129.984 303.321 134.545C266.676 140.147 228.017 163.049 195.383 145.487C162.42 127.748 145.197 86.1929 144.023 48.8195C142.955 14.8085 178.691 -7.52638 189.565 -39.7752C200.242 -71.4417 182.415 -112.788 206.376 -136.11C230.358 -159.452 270.106 -154.768 303.321 -150.495Z" fill="#F1F5F9"/>
<path opacity="0.5" fill-rule="evenodd" clip-rule="evenodd" d="M55.4405 78.9512C76.415 82.5329 88.0702 103.786 104.461 117.355C119.466 129.776 139.53 137.114 147.286 154.983C155.377 173.622 151.636 194.759 146.604 214.446C141.263 235.339 135.572 258.445 117.739 270.571C100.058 282.593 76.6685 278.984 55.4405 276.43C36.4924 274.151 17.3131 269.587 3.1549 256.79C-10.1986 244.72 -13.618 226.189 -19.1089 209.047C-24.5728 191.99 -30.5198 175.317 -28.6482 157.503C-26.4011 136.117 -23.1809 112.921 -7.46663 98.2412C8.96288 82.8935 33.2783 75.1667 55.4405 78.9512Z" fill="#F1F5F9"/>
</g>
</svg>
