<svg width="419" height="270" viewBox="0 0 419 270" fill="none" xmlns="http://www.w3.org/2000/svg">
<path opacity="0.1" d="M63.9104 91.1668C85.0053 85.7339 97.7019 64.2289 92.2691 43.1339C86.8362 22.039 65.3312 9.3424 44.2363 14.7753C23.1413 20.2081 10.4447 41.7131 15.8776 62.8081C21.3104 83.903 42.8155 96.5996 63.9104 91.1668Z" fill="#1B1B25"/>
<path d="M58.8318 88.2249C79.9267 82.792 92.6233 61.287 87.1905 40.1921C81.7576 19.0971 60.2526 6.4005 39.1577 11.8334C18.0627 17.2662 5.36611 38.7712 10.799 59.8662C16.2318 80.9611 37.7368 93.6577 58.8318 88.2249Z" fill="#FFB54A"/>
<path d="M56.9328 80.8515C39.9938 85.2141 22.6184 74.9556 18.2559 58.0166C13.8934 41.0776 24.1519 23.7023 41.0908 19.3398C58.0298 14.9773 75.4052 25.2357 79.7677 42.1747C84.1302 59.1137 73.9382 76.4719 56.9328 80.8515ZM41.6041 21.3326C25.7279 25.4214 16.16 41.6272 20.2488 57.5034C24.3375 73.3795 40.5434 82.9475 56.4195 78.8587C72.2957 74.7699 81.8637 58.5641 77.7749 42.6879C73.6861 26.8118 57.4802 17.2438 41.6041 21.3326Z" fill="#FCF0E3"/>
<path d="M50.3611 64.4106C48.3663 64.641 46.3865 64.6551 44.4048 64.3863C42.4231 64.1175 40.5893 63.5981 38.7706 62.8623L40.9247 56.9242C42.3599 57.5463 43.7437 57.969 45.027 58.276C46.3102 58.583 47.6921 58.723 49.0891 58.6465L47.2927 51.6717C45.5787 51.6173 44.064 51.5115 42.7314 51.288C41.3989 51.0646 40.2314 50.6569 39.2461 50.1315C38.2608 49.6061 37.4405 48.8965 36.7853 48.0028C36.1301 47.109 35.64 46.0311 35.2979 44.7025C34.9728 43.4404 34.8813 42.2598 35.0896 41.1436C35.298 40.0275 35.6735 39.0099 36.2824 38.0739C36.8913 37.1379 37.7338 36.2835 38.7433 35.5277C39.7528 34.7718 40.9465 34.1811 42.2901 33.6225L41.6229 31.0318L46.2064 29.8514L46.8907 32.5085C48.5534 32.3636 50.1004 32.3194 51.5829 32.5751C53.0483 32.7643 54.4986 33.17 55.9831 33.7085L54.3283 39.6597C53.3108 39.2842 52.244 38.9923 51.1942 38.7668C50.1445 38.5414 49.1289 38.4487 48.1305 38.4225L49.8584 45.1317C53.4857 45.1892 56.1851 45.769 58.0893 46.8369C59.9935 47.9048 61.2374 49.7095 61.8704 52.1673L61.8875 52.2337C62.2126 53.4958 62.3041 54.6764 62.0957 55.7926C61.8874 56.9088 61.5119 57.9263 60.8366 58.8794C60.2276 59.8154 59.3852 60.6698 58.3757 61.4257C57.3662 62.1815 56.1231 62.8558 54.7624 63.3479L55.8915 67.7321L51.308 68.9126L50.1618 64.4619L50.3611 64.4106ZM44.0422 39.0505C43.0136 39.457 42.302 39.9945 41.9568 40.5792C41.6116 41.164 41.4998 41.8302 41.688 42.5609L41.7051 42.6274C41.8762 43.2916 42.2294 43.8382 42.7478 44.2005C43.2661 44.5629 44.183 44.8225 45.5648 44.9625L44.0422 39.0505ZM53.3424 57.8344C55.3826 56.9549 56.1395 55.7683 55.7289 54.174L55.7118 54.1076C55.5065 53.3104 55.1532 52.7639 54.5685 52.4187C53.9837 52.0734 53.0668 51.8137 51.7514 51.6567L53.3424 57.8344Z" fill="#1B1B25"/>
<path opacity="0.1" d="M91.9285 259.44C107.384 265.225 124.603 257.386 130.388 241.93C136.173 226.475 128.334 209.256 112.879 203.471C97.4236 197.686 80.2046 205.525 74.4194 220.98C68.6341 236.435 76.4732 253.654 91.9285 259.44Z" fill="#1B1B25"/>
<path d="M90.0526 255.408C105.508 261.194 122.727 253.354 128.512 237.899C134.297 222.444 126.458 205.225 111.003 199.44C95.5476 193.654 78.3287 201.493 72.5434 216.949C66.7581 232.404 74.5972 249.623 90.0526 255.408Z" fill="#FFB54A"/>
<path d="M92.0745 250.006C79.6641 245.361 73.3303 231.448 77.9759 219.038C82.6214 206.627 96.5337 200.294 108.944 204.939C121.355 209.585 127.688 223.497 123.043 235.907C118.397 248.318 104.534 254.67 92.0745 250.006ZM108.398 206.399C96.7658 202.045 83.7899 207.953 79.4359 219.584C75.0819 231.216 80.9893 244.192 92.6211 248.546C104.253 252.9 117.229 246.993 121.583 235.361C125.937 223.729 120.029 210.753 108.398 206.399Z" fill="#FCF0E3"/>
<path d="M95.1321 236.946C93.7936 236.223 92.5584 235.372 91.4447 234.345C90.3311 233.317 89.4181 232.199 88.6084 230.952L92.5237 228.201C93.1447 229.21 93.8203 230.073 94.4837 230.821C95.1471 231.569 95.9443 232.256 96.8448 232.815L98.7577 227.705C97.7171 226.927 96.8226 226.203 96.0923 225.486C95.3621 224.769 94.8142 224.009 94.4306 223.255C94.0469 222.501 93.8458 221.704 93.827 220.865C93.8083 220.026 93.972 219.144 94.3363 218.17C94.6825 217.246 95.1382 216.473 95.7521 215.87C96.366 215.268 97.0409 214.799 97.8253 214.482C98.6097 214.166 99.5037 214.001 100.459 213.97C101.413 213.939 102.411 214.09 103.488 214.327L104.198 212.429L107.556 213.686L106.828 215.633C107.923 216.265 108.902 216.909 109.712 217.711C110.539 218.465 111.264 219.346 111.952 220.325L108.341 223.301C107.872 222.627 107.336 221.982 106.782 221.386C106.229 220.791 105.638 220.292 105.03 219.843L103.19 224.758C105.417 226.369 106.841 227.9 107.56 229.39C108.278 230.88 108.267 232.54 107.593 234.341L107.575 234.39C107.229 235.314 106.773 236.087 106.159 236.69C105.545 237.292 104.87 237.761 104.037 238.059C103.253 238.376 102.359 238.541 101.404 238.572C100.449 238.603 99.3844 238.482 98.326 238.197L97.1236 241.409L93.7655 240.152L94.9861 236.891L95.1321 236.946ZM102.219 218.458C101.404 218.263 100.729 218.288 100.261 218.501C99.7924 218.714 99.4337 219.08 99.2333 219.615L99.2151 219.664C99.033 220.15 99.015 220.643 99.1795 221.093C99.344 221.543 99.8005 222.102 100.598 222.789L102.219 218.458ZM99.838 234.157C101.487 234.497 102.472 234.089 102.909 232.921L102.927 232.872C103.146 232.288 103.164 231.795 102.95 231.327C102.737 230.859 102.281 230.3 101.532 229.631L99.838 234.157Z" fill="#1B1B25"/>
<path d="M282.701 55H372.801C382.101 55 389.601 62.5 389.601 71.8C389.601 81.1 382.101 88.6 372.801 88.6H298.601L288.401 97.9V88.6H282.801C273.501 88.6 266.001 81.1 266.001 71.8C265.901 62.5 273.401 55 282.701 55Z" fill="url(#paint0_linear_242_6881)"/>
<path d="M370.764 69.1274C371.852 68.1353 372.644 66.7463 372.644 65.159C372.644 62.2818 370.368 60 367.499 60C364.629 60 362.354 62.2818 362.354 65.159C362.354 66.7463 363.046 68.1353 364.233 69.1274C360.573 70.5163 358 73.9887 358 78.0564C358 83.3145 376.997 83.3145 376.997 78.0564C377.096 73.9887 374.425 70.4171 370.764 69.1274Z" fill="white"/>
<path d="M381.57 64.5806H379.419V62.4301C379.419 62.172 379.247 62 378.989 62H377.011C376.753 62 376.581 62.172 376.581 62.4301V64.5806H374.43C374.172 64.5806 374 64.7527 374 65.0108V66.9892C374 67.2473 374.172 67.4194 374.43 67.4194H376.581V69.5699C376.581 69.828 376.753 70 377.011 70H378.989C379.247 70 379.419 69.828 379.419 69.5699V67.4194H381.57C381.828 67.4194 382 67.2473 382 66.9892V65.0108C382 64.7527 381.828 64.5806 381.57 64.5806Z" fill="white"/>
<path d="M350.001 65H287.101C286.801 65 286.601 64.8 286.601 64.5C286.601 64.2 286.801 64 287.101 64H350.001C350.301 64 350.501 64.2 350.501 64.5C350.501 64.8 350.201 65 350.001 65Z" fill="white"/>
<path d="M340.201 79.7002H287.001C286.701 79.7002 286.501 79.5002 286.501 79.2002C286.501 78.9002 286.701 78.7002 287.001 78.7002H340.201C340.501 78.7002 340.701 78.9002 340.701 79.2002C340.701 79.5002 340.501 79.7002 340.201 79.7002Z" fill="white"/>
<path d="M325.701 72.7998H287.001C286.701 72.7998 286.501 72.5998 286.501 72.2998C286.501 71.9998 286.701 71.7998 287.001 71.7998H325.701C326.001 71.7998 326.201 71.9998 326.201 72.2998C326.201 72.5998 326.001 72.7998 325.701 72.7998Z" fill="white"/>
<path d="M350.001 72.7998H330.601C330.301 72.7998 330.101 72.5998 330.101 72.2998C330.101 71.9998 330.301 71.7998 330.601 71.7998H350.001C350.301 71.7998 350.501 71.9998 350.501 72.2998C350.501 72.5998 350.201 72.7998 350.001 72.7998Z" fill="white"/>
<path d="M344.6 183H406.7C413.1 183 418.3 188.2 418.3 194.6C418.3 201 413.1 206.2 406.7 206.2H348.5H344.6C338.2 206.2 333 201 333 194.6C333 188.2 338.2 183 344.6 183Z" fill="#4E69FF"/>
<path d="M399.6 190.7H351.5C351.2 190.7 351 190.5 351 190.2C351 189.9 351.2 189.7 351.5 189.7H399.6C399.9 189.7 400.1 189.9 400.1 190.2C400.1 190.5 399.9 190.7 399.6 190.7Z" fill="white"/>
<path d="M392.1 199.5H351.5C351.2 199.5 351 199.3 351 199C351 198.7 351.2 198.5 351.5 198.5H392.1C392.4 198.5 392.6 198.7 392.6 199C392.6 199.2 392.4 199.5 392.1 199.5Z" fill="white"/>
<path d="M381.1 195.4H351.5C351.2 195.4 351 195.2 351 194.9C351 194.6 351.2 194.4 351.5 194.4H381.1C381.4 194.4 381.6 194.6 381.6 194.9C381.6 195.2 381.3 195.4 381.1 195.4Z" fill="white"/>
<path d="M399.6 195.4H384.8C384.5 195.4 384.3 195.2 384.3 194.9C384.3 194.6 384.5 194.4 384.8 194.4H399.6C399.9 194.4 400.1 194.6 400.1 194.9C400.1 195.2 399.9 195.4 399.6 195.4Z" fill="white"/>
<path d="M120.273 116.133V116.043L133.322 70.6868H133.232C133.862 69.5169 135.302 67.0871 138.452 64.9273C143.851 61.1476 144.481 54.9382 144.481 54.9382C147.361 52.1484 150.601 49.8087 153.48 47.1089C153.75 46.8389 154.11 46.479 154.2 46.119C154.29 45.669 154.11 45.2191 153.84 44.8591C152.31 42.6093 149.521 42.3393 147.271 43.3292C145.921 43.9592 144.751 44.7691 143.581 45.759C143.041 46.209 141.241 47.4689 140.612 48.2788L150.961 26.1408C151.861 24.161 151.321 21.9112 149.611 21.1912C148.801 20.8313 147.811 20.8313 147.001 21.2812C146.461 21.5512 146.011 21.9112 145.561 22.4511C145.561 22.2711 145.651 22.1812 145.651 22.1812C133.502 12.0121 118.564 46.7489 118.564 46.7489L114.334 56.738L78.2471 123.602C73.1176 133.321 77.0773 145.29 86.8864 150.06C87.0664 150.15 87.1563 150.15 87.3363 150.24C90.2161 151.949 93.5458 152.849 97.1454 152.849H168.059L183.358 116.493L120.273 116.133Z" fill="#FEC29E"/>
<path opacity="0.17" d="M108.125 152.759C105.875 152.669 107.225 152.759 108.125 152.759V152.759Z" fill="#FF887C"/>
<path opacity="0.17" d="M120.364 116.042L118.294 123.242C117.754 125.222 117.124 127.381 116.494 129.541L113.974 138.18C113.614 139.26 113.165 140.34 112.715 141.33C110.555 147.72 108.755 152.669 108.755 152.669L134.313 116.132C127.923 116.222 126.483 116.042 120.364 116.042Z" fill="#FF887C"/>
<path d="M130.623 50.4388C130.533 50.4388 130.443 50.4388 130.353 50.3488C130.173 50.1689 130.083 49.8989 130.263 49.7189C134.762 43.5995 140.882 46.9292 140.972 46.9292C141.152 47.0191 141.242 47.2891 141.152 47.5591C141.062 47.7391 140.792 47.8291 140.522 47.7391C140.342 47.6491 135.032 44.7694 130.983 50.2589C130.893 50.4388 130.713 50.4388 130.623 50.4388Z" fill="#FB8E77"/>
<path d="M145.921 22.181C144.031 24.5208 142.321 27.0406 140.792 29.5604C139.982 30.8203 139.352 32.1701 138.722 33.52C138.182 34.8699 137.642 36.3098 137.732 37.7496C137.732 38.0196 137.552 38.1996 137.282 38.1996C137.012 38.1996 136.832 38.0196 136.832 37.7496C136.742 36.0398 137.372 34.5999 137.912 33.16C138.542 31.7202 139.262 30.3703 140.072 29.1104C141.691 26.5006 143.491 24.0709 145.381 21.7311C145.471 21.6411 145.651 21.6411 145.741 21.7311C146.011 21.9111 146.011 22.091 145.921 22.181Z" fill="#FB8E77"/>
<path d="M142.771 20.9215C141.601 21.7314 140.522 22.8113 139.532 23.9812C138.542 25.1511 137.732 26.321 137.012 27.6709C136.292 28.9308 135.662 30.2807 135.032 31.7205C134.762 32.4405 134.492 33.1604 134.222 33.7904L133.592 35.9502C133.502 36.2201 133.232 36.3101 133.052 36.2201C132.782 36.1301 132.692 35.8602 132.782 35.6802L133.502 33.5204C133.772 32.8004 134.042 32.0805 134.312 31.3606C134.942 29.9207 135.572 28.5708 136.382 27.3109C137.192 26.0511 138.092 24.7912 139.082 23.6213C140.072 22.4514 141.152 21.3715 142.501 20.5616C142.591 20.4716 142.771 20.4716 142.861 20.6515C142.951 20.6515 142.951 20.8315 142.771 20.9215Z" fill="#FB8E77"/>
<path d="M137.822 21.2815C136.112 23.0813 134.492 25.0611 133.142 27.1309C132.422 28.2108 131.792 29.2007 131.252 30.3706C130.712 31.4505 130.262 32.6204 130.083 33.7903C130.083 34.0603 129.813 34.2403 129.543 34.1503C129.273 34.0603 129.093 33.8803 129.183 33.6103C129.453 32.2605 129.903 31.0906 130.442 29.9207C130.982 28.7508 131.702 27.6709 132.422 26.681C133.862 24.6112 135.572 22.7213 137.372 20.9215C137.462 20.8315 137.642 20.8315 137.732 20.9215C138.002 21.0115 138.002 21.1915 137.822 21.2815Z" fill="#FB8E77"/>
<path d="M284.058 182.187L266.69 134.761C264.62 124.322 254.721 116.493 242.842 116.493L194.246 116.133L139.441 116.313V152.849H156.45L147.721 248.061L268.31 248.781L267.59 184.257L284.058 182.187Z" fill="#4E69FF"/>
<path opacity="0.05" d="M194.067 116.492L194.157 116.042L139.352 116.222V152.759H156.36L156.45 151.769C156.45 132.511 173.189 116.852 194.067 116.492Z" fill="#1B1B25"/>
<path opacity="0.18" d="M124.863 63.5776C124.863 63.5776 127.922 89.6753 128.102 89.0453C128.282 88.4154 133.412 70.687 133.412 70.687L124.863 63.5776Z" fill="#FF887C"/>
<path d="M196.587 195.775L191.997 172.558L188.487 154.649C188.037 152.579 185.968 151.139 183.898 151.589L166.079 155.189C164.01 155.639 162.57 157.709 163.02 159.779L166.619 177.777L169.499 192.086L171.209 200.905C171.659 202.975 173.729 204.415 175.798 203.965L186.328 201.895L193.617 200.455C195.687 200.005 197.037 197.935 196.587 195.775Z" fill="#1B1B25"/>
<path d="M291.258 217.193L283.249 182.277L246.802 186.776L248.782 195.685L248.602 195.595L209.006 185.786V185.876C207.926 185.336 205.856 183.986 204.056 181.287C200.726 176.337 195.147 176.157 195.147 176.157C194.067 174.987 193.077 173.817 192.087 172.647L192.987 177.327L192.717 177.417C190.197 178.767 187.318 179.307 184.528 179.127C179.308 178.677 170.669 178.047 167.069 177.777C165.989 177.687 164.91 178.227 164.46 179.217C159.33 189.926 181.288 199.735 186.238 201.805C186.328 201.805 186.328 201.895 186.418 201.895C186.508 201.895 186.598 201.985 186.598 201.985C186.688 201.985 186.688 202.075 186.778 202.075C186.868 202.075 186.868 202.165 186.958 202.165C187.048 202.165 187.048 202.165 187.138 202.255C187.138 202.255 187.138 202.255 187.228 202.255C187.318 202.255 187.318 202.255 187.318 202.255L195.867 205.494L263.721 238.881C264.351 239.151 264.98 239.421 265.61 239.691C268.94 241.221 272.72 241.671 276.499 240.771C287.029 238.342 293.688 227.812 291.258 217.193Z" fill="#FEC29E"/>
<path opacity="0.17" d="M288.648 205.945L246.802 186.776C248.242 192.896 247.342 190.196 248.602 195.596L251.482 196.316C263.541 197.125 288.648 205.945 288.648 205.945Z" fill="#FF887C"/>
<path opacity="0.35" d="M243.382 187.226C243.202 187.226 243.022 187.046 242.932 186.866L237.713 161.489C237.623 161.219 237.803 161.039 238.073 160.949C238.343 160.859 238.523 161.039 238.613 161.309L243.742 186.236L261.381 183.987C261.651 183.987 261.831 184.167 261.921 184.347C261.921 184.617 261.741 184.797 261.561 184.887L243.382 187.226C243.472 187.136 243.382 187.226 243.382 187.226Z" fill="#1B1B25"/>
<path opacity="0.17" d="M288.918 207.384C288.918 207.564 289.008 207.654 289.008 207.744C289.008 207.654 289.008 207.564 288.918 207.384Z" fill="#FF887C"/>
<path opacity="0.17" d="M288.648 205.944C288.648 205.944 288.738 206.394 288.828 206.934C288.828 206.664 288.738 206.304 288.648 205.944Z" fill="#FF887C"/>
<path opacity="0.17" d="M288.828 206.844C288.828 207.024 288.918 207.204 288.918 207.294C288.918 207.204 288.918 207.024 288.828 206.844Z" fill="#FF887C"/>
<path d="M239.243 22.4511C238.163 14.8018 231.144 9.40225 223.404 10.2122C221.334 10.4822 219.445 11.1121 217.825 12.102C215.305 8.05237 210.625 5.5326 205.586 6.07255C202.706 6.43252 200.186 7.6924 198.207 9.58223C195.417 8.14236 192.177 7.51242 188.847 7.96238C179.668 8.95229 173.099 17.2315 174.179 26.4107C174.629 30.7303 176.698 34.42 179.758 37.0297L176.338 55.1181C175.349 60.3376 178.768 65.2872 183.988 66.2771L224.124 73.8364C229.344 74.8263 234.293 71.4066 235.283 66.1871L241.853 31.0003C242.573 27.7606 241.493 24.6109 239.243 22.4511Z" fill="#1B1B25"/>
<path d="M180.748 32.3504C180.568 32.3504 180.478 32.2604 180.388 32.1704C173.189 20.8314 183.088 13.5421 183.178 13.4521C183.358 13.2721 183.628 13.3621 183.808 13.5421C183.988 13.7221 183.898 13.9921 183.718 14.172C183.358 14.442 174.449 21.0114 181.108 31.6305C181.198 31.8104 181.198 32.0804 180.928 32.2604C180.928 32.3504 180.838 32.3504 180.748 32.3504Z" fill="#FCF0E3"/>
<path d="M232.764 57.9081L231.864 57.7281L222.954 38.6498C220.795 38.3799 218.725 37.5699 216.925 36.3101C215.215 38.1099 212.875 39.4598 210.176 39.7297C206.936 40.0897 203.876 39.0098 201.626 36.94C199.197 39.0998 196.047 40.5397 192.537 40.9896C188.488 41.4396 184.708 40.4497 181.558 38.3799L175.349 71.4069C174.539 75.9965 175.439 80.4061 177.598 84.0957C179.758 89.4953 184.528 93.8149 190.557 95.1647V116.943C190.557 124.502 196.767 130.712 204.326 130.712H208.646C216.205 130.712 222.414 124.502 222.414 116.943V92.195C224.664 89.7652 226.284 86.7055 226.914 83.1958L228.084 77.1664L228.984 77.3464C234.203 78.3363 239.243 74.8266 240.233 69.607L240.323 69.0671C241.493 63.9376 237.983 58.898 232.764 57.9081Z" fill="#FEC29E"/>
<path opacity="0.32" d="M226.194 76.4463L225.384 80.7659C223.494 90.665 213.955 97.2344 204.056 95.3446L190.017 92.7348C184.618 91.7449 180.298 88.5052 177.688 84.0956C179.938 89.7651 184.978 94.1747 191.457 95.3446L191.997 95.4346C194.247 100.024 198.927 103.264 204.416 103.264H208.826C215.305 103.264 220.795 98.6743 222.234 92.6448C224.664 90.1251 226.464 86.8853 227.094 83.1957L228.264 77.1662L226.194 76.4463Z" fill="#FF887C"/>
<path d="M233.573 70.8667C233.483 70.8667 233.393 70.8667 233.303 70.7767L229.794 68.0769C229.704 67.9869 229.614 67.8969 229.614 67.717C229.614 67.627 229.614 67.447 229.794 67.357L234.113 63.3074C234.293 63.1274 234.563 63.1274 234.743 63.3074C234.923 63.4873 234.923 63.7573 234.743 63.9373L230.784 67.627L233.843 70.0567C234.023 70.2367 234.113 70.5067 233.933 70.6867C233.843 70.7767 233.663 70.8667 233.573 70.8667Z" fill="#FB8E77"/>
<path d="M211.256 54.128C210.536 54.128 209.906 53.678 209.186 53.3181C208.466 52.9581 207.746 52.5981 207.206 52.3281C206.576 52.0582 205.856 51.6982 205.136 51.4282C204.416 51.1582 203.606 50.8883 203.246 50.3483C202.796 49.8984 202.886 49.0884 203.876 48.6385C204.866 48.0985 206.756 48.0085 208.826 48.9984C210.896 49.9883 212.065 51.5182 212.245 52.5981C212.425 53.588 211.976 54.128 211.256 54.128Z" fill="#1B1B25"/>
<path d="M182.638 51.6083C183.178 51.9682 183.988 51.9682 184.798 52.0582C185.608 52.1482 186.328 52.2382 187.048 52.3282C187.767 52.4182 188.487 52.5982 189.297 52.6882C190.107 52.7782 190.827 52.9582 191.457 52.8682C192.087 52.6882 192.357 52.1482 191.817 51.2483C191.277 50.4384 189.657 49.3585 187.408 48.9985C185.158 48.7285 183.358 49.2685 182.638 49.8984C181.918 50.7084 182.098 51.3383 182.638 51.6083Z" fill="#1B1B25"/>
<path d="M204.686 61.7774C205.316 61.8674 205.946 61.5074 206.036 60.8775L206.306 59.4376C206.396 58.8077 206.036 58.2677 205.406 58.1777H205.316C204.686 58.0878 204.146 58.4477 204.056 59.0777L203.786 60.5175C203.696 61.1475 204.056 61.6874 204.686 61.7774Z" fill="#1B1B25"/>
<path d="M185.248 58.6275C185.878 58.7175 186.508 58.3575 186.598 57.7276L186.868 56.2877C186.958 55.6578 186.598 55.1178 185.968 55.0278H185.878C185.248 54.9379 184.708 55.2978 184.618 55.9278L184.348 57.3676C184.258 57.9976 184.708 58.5375 185.248 58.6275Z" fill="#1B1B25"/>
<path opacity="0.17" d="M205.496 66.9969L209.455 67.4469C210.175 67.5369 210.895 66.9969 210.985 66.187V66.097C211.075 65.3771 210.535 64.6572 209.725 64.5672L205.766 64.1172C205.046 64.0272 204.326 64.5672 204.236 65.3771V65.4671C204.146 66.187 204.686 66.9069 205.496 66.9969Z" fill="#FF887C"/>
<path opacity="0.17" d="M179.218 62.8573L183.178 63.3072C183.898 63.3972 184.618 62.8573 184.708 62.0474V61.9574C184.798 61.2374 184.258 60.5175 183.448 60.4275L179.488 59.9776C178.768 59.8876 178.048 60.4275 177.959 61.2374V61.3274C177.869 62.0474 178.408 62.7673 179.218 62.8573Z" fill="#FF887C"/>
<path d="M190.827 83.1956C190.647 83.1956 190.557 83.1056 190.467 83.0156C190.287 82.8356 190.377 82.5657 190.557 82.3857C192.447 81.0358 194.517 81.7557 195.417 82.3857C195.597 82.5657 195.687 82.8356 195.507 83.0156C195.327 83.1956 195.057 83.2856 194.877 83.1056C194.787 83.0156 192.897 81.7557 191.097 83.1056C191.007 83.1956 190.917 83.1956 190.827 83.1956Z" fill="#FB8E77"/>
<path d="M193.887 70.4166L204.416 68.8867L203.246 72.5764C202.526 74.9162 200.367 76.536 197.847 76.536C195.957 76.536 194.337 75.0961 194.157 73.2063L193.887 70.4166Z" fill="white"/>
<path d="M196.587 66.6368H196.497L193.257 65.8269C191.907 65.4669 190.737 64.477 190.197 63.2171C189.657 61.8672 189.747 60.4273 190.377 59.1675L195.327 50.2583C195.417 50.0783 195.687 49.9883 195.957 50.0783C196.137 50.1683 196.227 50.4382 196.137 50.7082L191.187 59.6174C190.647 60.6073 190.557 61.7772 191.007 62.8571C191.457 63.937 192.357 64.657 193.437 65.0169L196.677 65.8269C196.947 65.9168 197.037 66.0968 197.037 66.3668C196.947 66.5468 196.767 66.6368 196.587 66.6368Z" fill="#FB8E77"/>
<defs>
<linearGradient id="paint0_linear_242_6881" x1="387.835" y1="35.8483" x2="261.904" y2="45.1304" gradientUnits="userSpaceOnUse">
<stop stop-color="#83D343"/>
<stop offset="1" stop-color="#89D54E"/>
</linearGradient>
</defs>
</svg>
