<svg width="127" height="111" viewBox="0 0 127 111" fill="none" xmlns="http://www.w3.org/2000/svg">
<path fill-rule="evenodd" clip-rule="evenodd" d="M126.457 66.3315C125.626 64.0302 123.985 63.0928 121.544 63.035C116.279 62.9104 111.019 62.591 105.755 62.3983C102.224 62.2691 101.159 63.0941 100.202 66.6052C96.9913 66.4762 93.7524 66.313 90.5112 66.2256C87.3459 66.1404 84.1776 66.1567 81.0124 66.0682C80.4483 66.0526 79.7922 65.8791 79.3478 65.5501C73.5537 61.2616 67.1002 58.73 59.8985 58.1725C59.1939 58.1179 58.8838 57.9393 58.8914 57.164C58.9752 48.6651 60.9912 40.6669 64.9684 33.2124C66.816 33.89 68.5682 34.7097 70.4099 35.1772C78.5893 37.254 85.7631 33.7749 89.6891 25.9293C92.681 19.9499 93.3649 13.5385 93.1892 6.97713C93.1464 5.37596 93.0096 3.77611 92.8717 2.17938C92.7567 0.849153 91.9673 -0.00199449 90.6471 3.50997e-06C82.3431 0.0128795 74.199 0.953494 66.7379 4.94172C57.5974 9.82739 55.8536 20.3974 60.0827 27.7227C61.2544 29.7523 61.2997 31.0585 60.1988 33.0115C58.1557 36.6363 56.8862 40.6029 56.0198 44.6827C55.9549 44.9879 55.8448 45.2835 55.8399 45.3005C53.84 41.8592 51.7445 38.2941 49.7182 34.6902C49.5545 34.3989 49.7595 33.782 49.9692 33.4174C53.8705 26.6326 52.5108 17.6889 46.751 12.5169C43.6806 9.76001 39.9153 8.48784 35.9875 7.61949C29.9363 6.28172 23.8192 6.3098 17.6867 6.86902C16.4642 6.98046 15.5946 7.75102 15.5838 8.89743C15.5045 17.3039 16.4654 25.5054 21.0445 32.83C23.7716 37.1922 27.5491 40.2653 32.8022 41.0222C37.3094 41.6717 41.4398 40.4625 45.2483 38.048C45.5185 37.8769 45.7909 37.7094 46.1228 37.5024C50.3853 43.7293 53.1346 50.4955 54.3516 57.8391C51.8956 58.2914 49.5329 58.6003 47.2355 59.1717C37.833 61.5097 30.0449 66.4633 23.8655 73.9097C23.1379 74.7863 22.5523 75.2394 21.446 74.5593C20.7912 74.1569 19.98 74.0185 19.2841 73.6714C14.7771 71.4233 10.4691 72.1332 6.40309 74.7028C4.54152 75.8793 2.87604 77.381 1.19939 78.8254C0.669798 79.2814 0.392684 80.03 0 80.6446C0 81.2205 0 81.7962 0 82.3721C0.628904 83.7932 1.77305 84.6483 3.12395 85.3279C4.48094 86.0105 5.79031 86.787 7.11987 87.5236C18.4022 93.7749 29.6909 100.015 40.9642 106.283C48.4401 110.439 56.3458 111.636 64.6697 109.678C74.7028 107.316 84.7119 104.853 94.7329 102.441C96.1103 102.109 97.4959 101.811 98.8496 101.504C99.7554 103.896 100.912 104.956 102.834 105.047C108.749 105.327 114.667 105.59 120.586 105.791C123.161 105.878 124.896 104.136 125.007 101.527C125.343 93.6025 125.659 85.6773 126.008 77.7537C126.118 75.2607 126.305 72.7709 126.457 70.28C126.457 68.9637 126.457 67.6475 126.457 66.3315ZM4.93052 81.158C6.81152 79.9416 8.36486 78.7897 10.0503 77.8834C12.3336 76.6556 14.6764 76.5877 17.166 77.615C24.0396 80.4514 30.9817 83.1218 37.8761 85.9087C38.9165 86.3294 39.8977 86.9501 40.8167 87.6039C42.1961 88.5854 43.667 89.222 45.3681 89.2958C48.1232 89.4154 50.8777 89.5454 53.6329 89.6597C60.747 89.9545 67.8613 90.2513 74.9765 90.5191C75.5297 90.5398 76.1608 90.4692 76.6343 90.2154C77.5537 89.7224 77.9532 88.8552 77.6783 87.8153C77.3612 86.6163 76.4798 86.1285 75.2815 86.081C68.9482 85.83 62.6153 85.5728 56.2827 85.3082C52.7874 85.1619 49.292 85.0152 45.7986 84.8322C43.7523 84.7251 42.2708 83.1851 42.2758 81.258C42.2807 79.273 43.8394 77.7677 45.9566 77.7268C46.4904 77.7164 47.0253 77.7715 47.56 77.7941C52.5355 78.0048 57.5118 78.1978 62.486 78.4385C63.6212 78.4934 64.3689 78.0215 65.1731 77.2579C66.4421 76.0525 67.7831 74.827 69.3066 74.0029C74.0608 71.4309 79.2234 70.281 84.6183 70.3643C88.6088 70.4263 92.5963 70.6755 96.5846 70.8533C97.764 70.9058 98.9418 70.9989 100.174 71.0771C99.8294 79.1998 99.4673 87.2086 99.1744 95.2199C99.1318 96.3841 98.7948 96.8847 97.5975 97.1663C86.8364 99.6975 76.0622 102.185 65.3561 104.935C57.2704 107.011 49.7731 106.013 42.5319 101.911C34.0205 97.0895 25.406 92.4497 16.8373 87.7289C12.9871 85.6076 9.13981 83.4811 4.93052 81.158ZM120.526 101.35C114.745 101.108 109.136 100.873 103.399 100.632C103.877 89.2728 104.348 78.0599 104.824 66.741C110.649 66.9831 116.258 67.2163 121.951 67.4528C121.474 78.806 121.004 90 120.526 101.35ZM67.676 29.2253C70.9036 24.7014 74.7503 20.9148 79.2074 17.734C80.6146 16.7298 80.9569 15.3853 80.137 14.2783C79.337 13.1981 78.0133 13.1117 76.646 14.0617C72.9118 16.6554 69.5414 19.6551 66.5804 23.107C65.7554 24.0687 64.9571 25.0533 64.1328 26.0439C61.3161 21.7124 61.1497 13.1104 68.2387 8.99045C72.25 6.65911 76.6559 5.52292 81.2021 4.90709C83.6244 4.57898 86.0744 4.45543 88.8476 4.20979C88.6943 7.83094 88.71 11.1566 88.3749 14.4467C87.9466 18.6496 86.7819 22.6639 84.2951 26.1868C79.9691 32.3152 72.8586 32.3403 67.676 29.2253ZM43.2162 33.8865C38.5155 37.4532 31.2555 38.4101 26.2933 32.4384C23.0607 28.5479 21.5749 23.9227 20.7766 19.049C20.3553 16.4782 20.1933 13.8649 19.9136 11.2647C20.3251 11.1657 20.479 11.1028 20.636 11.0945C27.3058 10.7396 33.8506 11.2073 40.1413 13.7475C43.6339 15.1577 45.9073 17.6281 47.0169 21.1471C48.0093 24.2945 47.768 27.4018 46.2994 30.5767C44.7829 29.045 43.5238 27.4848 41.9854 26.2806C38.951 23.9049 35.7934 21.681 32.62 19.4908C31.4509 18.6839 30.0552 19.1264 29.4199 20.2488C28.8021 21.3402 29.1457 22.5699 30.3068 23.34C30.7513 23.6347 31.2316 23.8745 31.6874 24.1532C36.0285 26.8058 39.901 30.0085 43.2162 33.8865ZM73.9525 67.4948C69.4962 68.6244 65.7146 70.6786 62.4399 73.6862C62.1389 73.9627 61.5372 74.0191 61.0808 74.004C56.109 73.8386 51.1393 73.599 46.167 73.4601C41.9697 73.3429 38.7441 76.0321 37.981 80.1481C37.9249 80.4506 37.8146 80.7427 37.714 81.0938C34.2106 79.7007 30.796 78.3428 27.3387 76.968C37.789 63.7597 58.3327 57.5053 73.9525 67.4948Z" fill="#037C00"/>
</svg>
