<svg width="124" height="138" viewBox="0 0 124 138" fill="none" xmlns="http://www.w3.org/2000/svg">
<path fill-rule="evenodd" clip-rule="evenodd" d="M112.735 51.8946C109.127 47.0201 104.795 42.9113 99.7268 39.4251C99.8077 39.2231 99.8836 39.0338 99.9562 38.8532C100.103 38.4877 100.236 38.1571 100.367 37.826C102.841 31.583 104.013 25.0974 103.762 18.3876C103.542 12.5038 105.798 7.93902 110.678 4.69036C111.708 4.00423 112.582 3.2749 112.209 1.90497C111.859 0.621159 110.791 0.313971 109.61 0.235587C99.0434 -0.465039 88.645 0.282645 78.6404 4.03693C73.5942 5.93043 69.0121 8.61854 65.4726 12.7984C61.2405 17.7962 59.0552 23.6016 58.8581 30.1573C58.8559 30.2289 58.8562 30.3 58.8564 30.37C58.8578 30.8419 58.859 31.2638 58.1363 31.474C56.625 31.9137 55.1245 32.39 53.6239 32.8664C52.2051 33.3168 50.7863 33.7672 49.3584 34.1866C48.9089 34.3187 48.1976 34.2081 47.8438 33.9193C42.7842 29.7901 36.9555 28.2359 30.5439 28.677C23.6704 29.15 17.3412 31.4731 11.4022 34.8042C8.90396 36.2053 6.52043 37.8122 4.1375 39.4186C3.20818 40.0452 2.27895 40.6716 1.34304 41.2858C0.341619 41.9429 -0.310745 42.8392 0.151403 44.1043C0.614419 45.3719 1.69942 45.5727 2.88548 45.501C2.92636 45.4985 2.96731 45.495 3.00828 45.4916C3.10053 45.4838 3.19288 45.4759 3.28476 45.4796C7.73016 45.6568 11.1044 47.654 13.688 51.2874C15.7273 54.1555 17.9445 56.8992 20.1587 59.639C20.3411 59.8648 20.5236 60.0906 20.7059 60.3164C21.1884 60.9139 21.3535 61.3028 21.0357 62.0418C15.1264 75.7813 14.7486 89.6862 20.3405 103.578C26.3464 118.498 37.1371 128.623 52.2155 134.04C64.8456 138.577 77.4808 138.02 89.8334 133.019C92.7673 131.831 95.517 130.175 98.26 128.523C99.1373 127.995 100.014 127.467 100.896 126.955C102.262 126.161 102.511 124.814 101.772 123.773C101.085 122.807 99.8246 122.713 98.5738 123.538C98.4093 123.646 98.2474 123.759 98.0855 123.871C97.9921 123.936 97.8987 124.001 97.8049 124.065C91.958 128.05 85.5609 130.71 78.5967 131.959C77.3128 132.189 76.0143 132.338 74.6502 132.495C74.0042 132.569 73.3434 132.645 72.6625 132.732C72.771 132.49 72.8639 132.283 72.9466 132.099C73.0971 131.764 73.2135 131.505 73.327 131.244C74.2412 129.146 75.1561 127.048 76.0709 124.95C78.8721 118.527 81.6733 112.103 84.4563 105.672C85.1813 103.997 84.9432 103.267 83.4979 102.254C83.2507 102.081 83.0035 101.908 82.7563 101.735C79.5422 99.4818 76.3281 97.2289 73.0769 95.031C72.4853 94.6312 71.6992 94.3978 70.9801 94.3284C64.3973 93.6929 57.8104 93.0995 51.2218 92.5275C50.4685 92.4622 50.0681 92.2519 49.8409 91.4592C49.2276 89.3184 48.5917 87.184 47.9557 85.0496C47.3455 83.0013 46.7352 80.9529 46.1449 78.8989C46.0004 78.3962 46.0403 77.7466 46.2303 77.2568C47.4855 74.0216 48.7972 70.8081 50.1155 67.5978C50.2566 67.254 50.4928 66.865 50.7961 66.6876C51.5867 66.2251 52.4015 65.804 53.3058 65.3366C53.666 65.1504 54.0405 64.9569 54.4333 64.7504C55.5203 66.2463 56.6092 67.7419 57.6986 69.238C60.8598 73.5794 64.0242 77.9253 67.1525 82.297C67.9372 83.3937 68.7781 83.9483 69.8967 83.5772C71.1056 83.1762 71.4071 82.2114 71.4627 81.0601L71.4847 80.6036C71.6996 76.1392 71.9146 71.6743 72.1749 67.2124C72.3245 64.6487 72.5077 62.0869 72.6845 59.6157C72.761 58.5461 72.8363 57.4934 72.9072 56.4649L84.6486 54.2035C83.4708 56.3144 84.6744 57.9353 85.9142 59.6051C85.9496 59.6528 85.9849 59.7004 86.0203 59.7481C86.68 60.6382 87.3048 61.5551 87.9295 62.4718C88.7824 63.7234 89.635 64.9744 90.5756 66.1563C91.4626 67.2709 91.4024 68.0882 90.7121 69.2084C89.7749 70.7295 88.9535 72.3245 88.134 73.9159C88.0774 74.0259 88.0208 74.1359 87.9641 74.2458C87.26 75.6119 87.5914 76.9327 88.9267 77.3471C89.6522 77.5722 90.3728 77.8156 91.0933 78.0588C94.2158 79.1131 97.3336 80.1657 100.813 79.7309C104.269 79.2991 104.4 79.4781 105.251 82.8327C105.905 85.411 107.105 87.5675 108.887 89.5268C110.284 91.0639 111.617 92.6596 112.95 94.2556C113.897 95.3895 114.844 96.5236 115.815 97.6368C116.382 98.2873 116.508 98.8189 116.215 99.6407C114.757 103.729 112.865 107.589 110.44 111.189C109.488 112.602 109.618 113.824 110.753 114.574C111.897 115.33 113.047 114.975 114.004 113.57C126.728 94.8978 126.211 70.1037 112.735 51.8946ZM24.7117 64.1819C24.7393 64.0842 24.7703 63.9739 24.8089 63.8452C31.0884 68.2679 37.7028 69.9866 45.2616 68.6487C45.0387 69.1799 44.837 69.7008 44.64 70.2093C44.2203 71.2929 43.8224 72.3201 43.2885 73.2706C41.5643 76.3407 41.4296 79.3158 42.7114 82.6604C43.8518 85.6356 44.7004 88.725 45.5481 91.8109C45.7868 92.6798 46.0254 93.5486 46.2705 94.4144C46.6835 95.874 47.5143 96.4976 49.0114 96.6246C55.8636 97.2054 62.711 97.8466 69.5557 98.5124C70.2237 98.5774 70.9398 98.8418 71.4995 99.2153C72.9119 100.157 74.3066 101.126 75.7013 102.095C76.8636 102.902 78.026 103.71 79.1986 104.502C79.8212 104.922 80.0054 105.295 79.6825 106.021C78.2242 109.3 76.7708 112.581 75.3174 115.862C72.9351 121.24 70.5527 126.619 68.1485 131.987C67.9976 132.324 67.3443 132.673 66.9669 132.632C64.4566 132.355 61.949 132.021 59.4622 131.583C58.982 131.498 58.4127 130.952 58.1984 130.477C57.5311 128.999 56.8956 127.506 56.26 126.014C55.6582 124.601 55.0563 123.187 54.4274 121.786C54.1716 121.216 53.67 120.683 53.1527 120.316C51.2934 118.999 49.4209 117.7 47.5484 116.401C45.9492 115.292 44.3501 114.182 42.7592 113.061C41.8475 112.419 40.9617 112.248 39.884 112.595C38.6768 112.984 37.4597 113.343 36.2426 113.701C35.1576 114.021 34.0726 114.34 32.9945 114.682C32.3124 114.898 31.8711 114.845 31.4109 114.232C19.9525 98.9544 17.669 82.4256 24.5713 64.6301C24.6226 64.498 24.6612 64.3609 24.7117 64.1819ZM69.2455 48.8299C69.2165 48.9167 69.1843 49.0128 69.1503 49.1236C67.2105 46.8859 65.8201 44.4722 64.8861 41.8263C63.0578 36.6477 62.5383 31.3386 63.6305 25.925C65.2246 18.023 70.0168 12.6633 77.1318 9.29915C85.5929 5.29867 94.6491 4.30162 103.883 4.25318C103.886 4.31365 103.892 4.36555 103.898 4.40917C103.908 4.48381 103.914 4.53424 103.892 4.56202C100.61 8.71251 99.2367 13.4186 99.3319 18.7211C99.4464 25.0846 98.5209 31.3041 95.9123 37.2028C91.2833 47.6705 81.1281 51.8476 73.1459 51.7642C73.6625 47.5366 74.7527 43.4714 76.293 39.5275C80.0997 29.7813 86.0276 21.4902 93.5951 14.3327C93.6933 14.2398 93.7942 14.1494 93.8951 14.059C94.0925 13.8821 94.2898 13.7053 94.4668 13.5099C95.292 12.599 95.3252 11.4645 94.5728 10.619C93.7821 9.73013 92.5416 9.55652 91.6101 10.4383C91.3274 10.7059 91.044 10.9732 90.7604 11.2405C88.7822 13.1057 86.7977 14.9767 85.0196 17.0222C77.1125 26.1186 71.5773 36.4364 69.368 48.4042C69.3433 48.5376 69.2998 48.6676 69.2455 48.8299ZM8.40624 41.9241C8.28498 41.8647 8.13426 41.7907 7.93501 41.6958C8.80267 41.2165 9.64263 40.7398 10.4671 40.2719C12.2428 39.2642 13.9466 38.2973 15.7009 37.4327C20.921 34.8595 26.3656 33.0323 32.2677 32.8647C40.2999 32.6366 48.2428 37.7803 51.4068 45.2065C52.9996 48.9452 53.9725 52.7617 53.5705 57.0594C53.4437 56.9562 53.329 56.8672 53.2241 56.7858C53.0251 56.6314 52.8611 56.504 52.7154 56.3584C43.6433 47.2896 32.5785 42.2446 20.0714 40.1089C19.8965 40.0791 19.7208 40.0507 19.5444 40.0337C18.0658 39.8909 17.0961 40.5657 16.9246 41.8538C16.7572 43.1108 17.5693 43.9465 19.0051 44.2943C19.8994 44.5109 20.7972 44.7185 21.6954 44.9263C24.5182 45.5791 27.3439 46.2326 30.0716 47.1675C37.6592 49.7682 44.371 53.8927 50.0249 59.653C50.376 60.0107 50.7129 60.3822 51.0757 60.7822C51.2523 60.9769 51.435 61.1784 51.6285 61.3884C49.2842 62.8975 46.866 63.8228 44.2741 64.3235C37.0023 65.7283 30.7726 63.5638 25.3207 58.7481C22.2313 56.0193 19.704 52.8169 17.4991 49.3519C15.3779 46.0183 12.5259 43.58 8.84541 42.1277C8.72238 42.0792 8.6032 42.0207 8.40624 41.9241ZM113.457 61.2113C118.633 71.3478 120.04 82.0326 117.883 93.5417C117.188 92.729 116.507 91.9368 115.839 91.1584C113.918 88.9241 112.097 86.8045 110.322 84.6466C110.012 84.2698 109.88 83.7398 109.75 83.2166C109.703 83.0274 109.657 82.8391 109.602 82.6593C109.03 80.7858 108.463 78.9108 107.924 77.0279C107.553 75.7329 106.751 75.1051 105.389 75.1639C104.658 75.1955 103.926 75.2093 103.194 75.223C101.883 75.2477 100.573 75.2723 99.2725 75.3989C97.5682 75.5649 96.0424 75.0786 94.4124 74.5591C93.8265 74.3724 93.2272 74.1814 92.6013 74.0148C92.9096 73.4698 93.206 72.9376 93.4967 72.4156C94.1522 71.2388 94.7783 70.1144 95.4453 69.0149C96.1849 67.7951 96.1207 66.735 95.2753 65.5736C94.1769 64.0645 93.105 62.5361 92.033 61.0077C91.0894 59.6622 90.1458 58.3167 89.184 56.9844C88.6479 56.2414 88.5584 55.5645 88.7013 54.6526C89.0595 52.3652 89.9973 50.6892 91.9593 49.2307C93.434 48.1343 94.6796 46.7288 95.9782 45.2635C96.5594 44.6078 97.1511 43.94 97.7788 43.2826C104.395 47.8268 109.698 53.85 113.457 61.2113ZM67.4018 71.4423C67.3215 72.5021 67.2411 73.5625 67.1609 74.6235C67.1278 74.5959 67.0901 74.5683 67.0508 74.5396C66.9613 74.4743 66.8637 74.403 66.794 74.3105C66.483 73.8984 66.1721 73.4863 65.8611 73.0742C63.069 69.374 60.277 65.6739 57.5145 61.9515C57.2638 61.6137 57.082 61.0371 57.1819 60.6538C59.2476 52.7284 56.9684 45.7383 52.6302 39.1781C52.4702 38.9362 52.3035 38.6988 52.1024 38.4124C51.997 38.2623 51.8822 38.0987 51.7539 37.914L59.1387 35.7125C59.2117 36.0911 59.2799 36.4595 59.3468 36.8204C59.488 37.5827 59.6232 38.312 59.7837 39.0357C61.0841 44.9019 63.4747 50.1575 68.2124 54.1049C68.4407 54.2952 68.6464 54.6922 68.6261 54.976C68.2338 60.4606 67.8184 65.9436 67.4018 71.4423ZM52.4776 128.208C52.6987 128.728 52.9263 129.263 53.1643 129.818C46.2113 127.252 40.4427 123.517 35.2331 118.463C35.7292 118.315 36.2075 118.169 36.6735 118.027C37.9296 117.645 39.0958 117.29 40.2762 116.991C40.6241 116.903 41.1322 117.1 41.4578 117.325C44.3083 119.288 47.1392 121.281 49.9606 123.286C50.2694 123.506 50.571 123.821 50.7238 124.161C51.3093 125.463 51.8684 126.777 52.4776 128.208ZM105.575 117.581C104.44 117.856 103.754 119.003 104.042 120.145C104.333 121.3 105.453 121.991 106.589 121.715C107.69 121.448 108.419 120.249 108.156 119.137C107.898 118.044 106.684 117.312 105.575 117.581Z" fill="#AA913B"/>
</svg>
