<svg width="139" height="125" viewBox="0 0 139 125" fill="none" xmlns="http://www.w3.org/2000/svg">
<path fill-rule="evenodd" clip-rule="evenodd" d="M12.3497 15.5277C6.17472 19.7488 2.97063 26.0202 0.468212 32.7735C0.278338 33.286 -0.0663821 33.8467 0.0111799 34.3285C0.137948 35.1159 0.349645 36.1527 0.903838 36.5341C1.45747 36.9152 2.74753 36.9614 3.24474 36.5648C5.94078 34.4141 8.79362 34.3111 12.0124 35.0887C15.8392 36.0132 19.7743 36.2862 23.6413 35.204C28.0514 33.9699 30.2116 31.9361 32.6913 26.9859C35.8469 27.1195 37.9293 29.1445 39.0103 33.1237C36.7711 34.4279 34.4818 35.649 32.3062 37.0472C16.49 47.2105 7.88247 67.7329 11.7141 86.0415C12.009 87.4502 13.0712 88.2493 14.3492 88.0237C15.5291 87.8153 16.2831 86.6996 16.0326 85.3211C15.2121 80.8059 15.0157 76.2772 15.5986 71.7217C15.7015 70.9173 15.8395 70.1175 15.9785 69.2029C18.6151 70.5447 20.7826 72.3195 22.834 74.2749C24.2822 75.6555 25.76 77.0186 27.3308 78.2541C30.1735 80.4901 33.2871 81.0216 36.689 79.5252C39.1487 78.4432 41.6336 77.409 44.1505 76.4695C47.1263 75.3585 49.9871 75.8187 52.6612 77.4659C55.2581 79.0654 57.4201 81.1236 59.0417 83.7258C59.1621 83.9188 59.2819 84.1135 59.4178 84.2956C60.2299 85.384 61.3918 85.7059 62.3933 85.1251C63.4684 84.5017 63.7979 83.2704 63.1093 82.035C61.4853 79.1214 59.2041 76.792 56.5517 74.7995C51.3086 70.8606 45.7546 70.6539 39.9279 73.3352C38.231 74.1162 36.4787 74.7764 34.7801 75.5539C33.1991 76.2774 31.7293 76.0655 30.4028 75.0609C29.0993 74.0732 27.8012 73.0489 26.656 71.8872C23.8472 69.0381 20.7568 66.5989 17.0403 64.8399C18.1639 60.7889 19.8889 57.0628 22.12 53.5328C23.5152 54.0585 24.8441 54.656 26.2289 55.0621C29.8784 56.1319 33.2765 55.7509 36.1473 53.0128C38.1896 51.065 40.3898 50.6659 43.1615 51.5082C47.783 52.9127 52.3851 52.482 56.6289 50.0406C59.6266 48.3161 61.3266 45.4672 62.3284 42.2785C63.1977 39.5116 63.7325 36.6396 64.4531 33.6572C69.2358 34.2065 73.9262 35.6712 78.5555 37.9685C78.2976 38.3828 78.048 38.7381 77.8442 39.1181C76.4894 41.6442 75.0006 44.1106 73.8273 46.7188C71.6493 51.561 72.3181 56.098 75.9905 59.9911C78.1725 62.3044 80.5443 64.4423 82.8826 66.603C83.7804 67.4325 85.0439 67.3076 85.8437 66.4826C86.6756 65.6246 86.7088 64.3483 85.7892 63.4159C84.5754 62.1853 83.2377 61.0774 82.0192 59.8512C80.7727 58.5966 79.566 57.2969 78.4137 55.9551C76.844 54.1271 76.6839 52.0243 77.3705 49.7849C78.4403 46.2972 80.3008 43.2368 82.4228 40.1804C85.4634 42.0078 88.1019 44.2146 90.5119 46.7018C94.557 50.8772 97.6168 55.6865 99.8096 61.0734C100.105 61.7989 100.757 62.597 101.442 62.8778C101.995 63.1046 103.159 62.8273 103.489 62.3683C103.939 61.7419 104.237 60.5501 103.936 59.9148C102.323 56.5048 100.813 52.9823 98.7044 49.8811C87.6112 33.5618 67.6147 25.7609 48.4167 30.0735C46.6904 30.4612 44.9977 30.9985 43.3031 31.4626C41.2961 27.9412 41.4139 24.8846 43.6148 22.6247C50.9462 25.8317 56.8034 23.2031 62.0406 17.0756C63.1318 15.7988 64.1039 14.4109 65.0407 13.014C66.4223 10.9534 68.2909 9.72159 70.7543 9.47337C71.9869 9.34913 73.0288 9.01561 73.3194 7.66539C73.6131 6.30119 72.7863 5.55993 71.6875 4.99646C66.536 2.35449 61.2119 0.247394 55.3429 0.0106403C53.7229 -0.0548797 52.09 0.199262 50.4632 0.306866C49.362 0.746606 48.2609 1.18635 47.1598 1.62609C45.9302 2.61619 44.6389 3.53952 43.482 4.60863C39.4644 8.32185 38.9616 12.8843 40.391 17.8921C40.5198 18.3434 40.6808 18.9574 40.4851 19.3001C39.5964 20.8544 38.5851 22.3383 37.6689 23.7681C36.3736 23.3883 35.0085 22.8649 33.5951 22.6166C32.6418 22.4491 32.1157 22.1103 31.6702 21.2306C28.8081 15.5788 24.6571 13.3387 18.3339 13.9315C17.4394 14.0154 16.5466 14.1158 15.653 14.2084C14.5518 14.6483 13.4508 15.0879 12.3497 15.5277ZM59.8073 33.3414C59.4784 36.717 58.8938 39.9252 57.3522 42.8828C56.3081 44.8859 54.8514 46.4556 52.6077 47.1383C49.7494 48.0079 46.8471 48.2179 44.0087 47.2366C40.0603 45.8716 36.7218 46.801 33.6203 49.4184C30.8475 51.7585 27.9621 51.8037 24.9368 49.7518C32.1334 40.0805 45.6691 32.894 59.8073 33.3414ZM44.4037 15.4904C44.2673 14.9518 44.1458 14.6142 44.0989 14.2663C43.5314 10.0488 47.2364 5.47135 51.9672 4.59364C56.5568 3.74226 60.7781 5.16089 64.7717 6.60712C63.1229 8.70124 61.5668 10.8165 59.8601 12.8028C58.4118 14.4885 56.89 16.1402 55.2202 17.6005C52.8791 19.6479 50.11 20.0643 46.9106 19.2046C48.4078 17.7244 49.7402 16.4248 51.0516 15.1044C52.2011 13.947 52.3085 12.6949 51.375 11.7273C50.475 10.7944 49.1341 10.8779 47.9972 11.969C46.8301 13.0892 45.6853 14.2326 44.4037 15.4904ZM27.9441 26.7768C26.5824 29.0777 24.8357 30.686 22.4508 31.0408C20.0961 31.3913 17.6446 31.3702 15.2613 31.1823C12.2918 30.9483 9.34878 30.3768 6.33721 29.9429C7.83493 26.8354 9.63484 23.6658 12.358 21.0846C15.1841 18.4058 18.5816 17.8214 22.248 18.3792C24.5436 18.7284 26.0545 20.1937 27.2421 22.3729C25.3691 22.3387 23.7799 22.2951 22.1906 22.2844C20.6042 22.2738 19.5749 23.1188 19.5518 24.4103C19.5276 25.7595 20.4682 26.6133 22.0887 26.6609C23.9496 26.7156 25.8114 26.7361 27.9441 26.7768ZM118.707 123.977C120.951 118.8 123.207 113.627 125.436 108.444C129.741 98.4315 134.031 88.4125 138.326 78.3965C139.284 76.1625 138.947 75.3154 136.706 74.3508C133.397 72.9267 130.087 71.5034 126.774 70.0898C124.779 69.2388 123.854 69.5998 123.004 71.5912C122.594 72.5524 122.26 73.5459 121.851 74.6317C121.241 74.4031 120.823 74.2648 120.42 74.0921C116.815 72.5486 113.218 70.9862 109.608 69.4534C96.5026 63.8887 82.3285 69.8798 77.118 83.1322C76.8924 83.7063 76.2607 84.2909 75.6786 84.5283C68.9245 87.2819 62.1752 90.0525 55.3571 92.6416C51.6829 94.0365 49.0402 96.1887 48.3173 100.343C47.7674 100.132 47.3086 99.9744 46.8638 99.7837C40.0326 96.8546 33.2236 93.8722 26.3675 91.002C19.2521 88.023 11.761 93.391 12.4667 100.942C12.8452 104.993 15.0906 107.747 18.7792 109.342C25.1413 112.093 31.5144 114.817 37.883 117.553C42.031 119.335 46.1792 121.116 50.327 122.898C56.1009 125.379 61.8976 125.452 67.7348 123.113C76.8326 119.466 85.998 115.98 95.0117 112.137C98.6746 110.575 101.864 110.783 105.514 113.138C105.006 114.083 104.354 115.122 103.87 116.235C103.208 117.759 103.618 118.81 105.127 119.464C109.133 121.2 113.162 122.882 117.182 124.586C117.69 124.383 118.199 124.18 118.707 123.977ZM119.664 78.475C115.294 88.6656 111.025 98.6191 106.736 108.619C106.826 108.631 106.731 108.638 106.651 108.606C106.228 108.434 105.796 108.28 105.392 108.072C101.606 106.124 97.8876 106.238 93.9486 107.875C84.6053 111.759 75.176 115.436 65.7707 119.17C61.5244 120.856 57.1886 120.992 52.976 119.218C42.0091 114.6 31.0781 109.893 20.1852 105.103C19.0389 104.599 17.9887 103.446 17.3391 102.335C16.1973 100.382 16.7484 97.9004 18.3165 96.2803C20.0052 94.5356 22.3599 94.0512 24.7336 95.0644C32.6592 98.4474 40.5764 101.85 48.4792 105.286C49.0167 105.519 49.5053 106.016 49.8553 106.506C52.0859 109.631 56.2285 111.12 59.7984 109.728C69.3958 105.985 78.9477 102.126 88.5097 98.2934C89.8192 97.7686 90.3462 96.5967 89.9154 95.439C89.4649 94.2289 88.2532 93.756 86.8574 94.2527C86.5141 94.3748 86.1789 94.5201 85.8402 94.6554C76.9082 98.2222 67.9719 101.778 59.0481 105.366C57.2872 106.074 55.6561 106.015 54.1727 104.792C51.5864 102.661 52.2845 98.6495 55.4998 97.3507C62.9807 94.329 70.4631 91.3094 77.9878 88.4003C79.6828 87.7449 80.5866 86.7729 81.1705 85.0487C84.5614 75.0352 95.2351 69.4181 105.301 72.6199C110.271 74.2005 114.998 76.5461 119.664 78.475ZM133.45 77.9037C127.555 91.6393 121.651 105.395 115.807 119.013C113.572 118.058 111.204 117.045 109.005 116.106C114.857 102.441 120.749 88.6799 126.613 74.9858C128.837 75.9347 131.174 76.9326 133.45 77.9037Z" fill="#7C2300"/>
</svg>
