<svg width="131" height="124" viewBox="0 0 131 124" fill="none" xmlns="http://www.w3.org/2000/svg">
<path fill-rule="evenodd" clip-rule="evenodd" d="M1.33843 44.2655C1.2173 44.8668 1.08201 45.4667 0.94672 46.0666C0.639985 47.4267 0.333242 48.7868 0.191521 50.1638C-0.0343226 52.3576 -0.0179476 54.5853 0.0289504 56.7952C0.0627484 58.3895 1.16053 59.3574 2.56223 59.2808C3.96864 59.2037 4.94813 58.1163 4.82054 56.5435C4.39492 51.2967 5.60339 46.4127 7.69193 41.6262C10.2771 35.7017 12.7962 29.7484 15.3153 23.7951L15.3153 23.795C16.7614 20.3776 18.2074 16.9602 19.666 13.5482C21.0402 10.3339 24.8376 9.41592 27.3731 11.6313C28.9006 12.9662 29.4821 15.128 28.6831 17.034C26.0915 23.2151 23.4605 29.3799 20.8099 35.536C20.6675 35.8664 20.2425 36.2034 19.8867 36.2948C13.4676 37.9456 10.4695 43.7542 12.9218 49.8828C14.9612 54.9795 17.0161 60.0698 19.0846 65.1545C19.2929 65.6667 19.5489 66.2263 19.9459 66.5807C20.7624 67.3093 21.7522 67.4807 22.7436 66.8928C23.7652 66.2872 24.1403 65.3617 23.8649 64.2058C23.7926 63.9021 23.6706 63.6095 23.5491 63.318L23.549 63.3178C23.5148 63.2356 23.4806 63.1536 23.4476 63.0713C22.7784 61.4089 22.1079 59.7471 21.4374 58.0852L21.4373 58.0849C20.0841 54.731 18.731 51.3771 17.3889 48.0187C16.2465 45.1603 17.2937 42.4194 19.8972 41.3472C22.4906 40.2789 25.1753 41.5204 26.3555 44.3463C26.4783 44.6403 26.6043 44.9334 26.7304 45.2266L26.7305 45.227C27.1156 46.1223 27.5009 47.0184 27.794 47.9432C29.9585 54.7752 34.6334 59.6052 40.2518 63.6892C40.9418 64.1908 41.6543 64.6611 42.3669 65.1315L42.367 65.1316C42.6972 65.3495 43.0273 65.5674 43.3552 65.7884C46.9322 68.1991 48.5423 72.9241 46.8888 76.9049C44.1843 83.416 41.4148 89.9002 38.6454 96.3843C37.5769 98.886 36.5084 101.388 35.4436 103.891C35.425 103.935 35.3923 103.973 35.3456 104.028C35.3187 104.059 35.2872 104.096 35.2511 104.142L16.1717 96.032C16.3429 95.6288 16.5071 95.2426 16.6711 94.8569L16.6849 94.8244C17.0633 93.9342 17.4409 93.0436 17.8185 92.153L17.8185 92.1529C18.7964 89.8465 19.7743 87.5402 20.7652 85.2394C21.2259 84.1693 21.1471 83.2159 20.379 82.3157C19.5383 81.3303 18.7018 80.3412 17.8654 79.3522L17.8636 79.3501C16.5412 77.7865 15.2189 76.2229 13.8796 74.6739C12.89 73.5294 11.4925 73.3948 10.4356 74.2466C9.33349 75.1348 9.19882 76.5818 10.1977 77.7952C11.811 79.7549 13.447 81.698 15.1389 83.5894C15.7137 84.2321 15.7377 84.7447 15.4052 85.5029C14.0662 88.5568 12.7699 91.6294 11.4737 94.7019L11.4736 94.7021L10.9363 95.9754C10.1357 97.871 10.6068 99.0167 12.5224 99.8323C20.0587 103.041 27.5971 106.246 35.1376 109.445C37.0513 110.257 38.2065 109.8 39.0126 107.906C39.9858 105.62 40.9601 103.334 41.9344 101.048L41.9357 101.045L41.9359 101.044C45.0138 93.8223 48.0916 86.6006 51.1361 79.3648C54.0092 72.5365 51.6076 65.3714 45.3999 61.3069C42.8527 59.6391 40.493 57.6493 38.2089 55.6243C35.8306 53.5157 34.0667 50.9171 32.9853 47.8785C32.6716 46.9971 32.3109 46.1325 31.9502 45.2679C31.6268 44.4926 31.3033 43.7172 31.0136 42.9294C30.0194 40.2257 28.3005 38.1958 25.525 36.8859L26.0298 35.698C26.7439 34.0166 27.4614 32.3368 28.1789 30.6569L28.1794 30.6559L28.1797 30.6551C29.8568 26.7286 31.5339 22.8021 33.167 18.8574C34.882 14.7146 33.3952 9.86864 29.7586 7.35864C25.9487 4.72884 20.9588 5.05732 17.6089 8.19055C17.1714 8.59987 16.7796 9.0582 16.3879 9.51654C16.2072 9.72801 16.0264 9.93949 15.8412 10.1462L1.33843 44.2655ZM129.944 58.6465C130.294 56.2507 130.25 53.8932 129.037 51.7175C127.125 48.29 124.192 46.4418 120.252 46.5442C116.216 46.649 113.245 48.6483 111.609 52.3316C109.897 56.1867 108.26 60.0747 106.622 63.9627C105.924 65.619 105.227 67.2753 104.523 68.9291L104.283 69.4937L103.967 70.2372C100.711 68.8742 97.6693 69.5265 94.6911 70.9272C94.4769 71.028 94.254 71.1109 94.0313 71.1937L94.0312 71.1938L94.0311 71.1938C93.7607 71.2944 93.4906 71.3948 93.2365 71.527C86.4697 75.0471 79.4419 74.6062 72.3662 72.8321C65.8351 71.1946 58.7063 74.3325 55.9918 80.4938C52.7334 87.8895 49.5911 95.3365 46.4488 102.783L46.448 102.785C45.4153 105.233 44.3825 107.68 43.3457 110.126C42.7188 111.605 43.2345 112.874 44.7108 113.506C52.4645 116.821 60.2253 120.12 67.9923 123.403C69.5266 124.052 70.775 123.525 71.4427 121.977C72.9931 118.381 74.5387 114.782 76.0239 111.158C76.3344 110.401 76.7376 110.152 77.5265 110.112C81.3484 109.918 85.1698 109.697 88.9867 109.42C100.398 108.592 109.076 103.299 114.932 93.4304C115.028 93.2678 115.151 93.1205 115.273 92.9733C115.33 92.9046 115.387 92.836 115.441 92.7659L129.944 58.6465ZM48.7638 109.908C48.7829 109.84 48.7985 109.777 48.8132 109.719C48.8416 109.605 48.8663 109.506 48.9057 109.413C49.9596 106.934 51.01 104.453 52.0604 101.972C54.7882 95.5304 57.5159 89.0884 60.3041 82.6725C62.0491 78.657 66.5532 76.5799 70.8482 77.4438C73.4111 77.9595 75.9986 78.3994 78.5958 78.6872C83.8885 79.2736 89.0541 78.8379 93.9481 76.4681C95.4695 75.7315 97.0613 75.1101 98.671 74.5926C102.277 73.433 105.652 76.4853 104.895 80.1889C104.524 82.003 103.331 83.1265 101.645 83.8038C96.4396 85.8948 91.2376 87.9952 86.0415 90.11C84.4721 90.7488 83.8509 92.0174 84.3813 93.3608C84.8999 94.6737 86.3065 95.2042 87.82 94.5966C88.9294 94.1514 90.0393 93.7073 91.1492 93.2631L91.1686 93.2554C95.3733 91.5728 99.5781 89.8903 103.758 88.148C109.469 85.7672 111.521 79.3702 108.41 74.0191C108.179 73.6206 108.119 72.9353 108.295 72.5148C110.813 66.4785 113.371 60.4593 115.949 54.4481C117.076 51.8209 119.836 50.6758 122.342 51.7324C124.847 52.7884 125.969 55.5889 124.862 58.2031C123.68 60.9925 122.509 63.7862 121.337 66.58L121.337 66.5804C118.23 73.9889 115.123 81.3976 111.835 88.7253C107.631 98.0968 100.18 103.366 89.9603 104.45C86.21 104.848 82.4371 105.038 78.6654 105.228L78.6643 105.228C77.5248 105.286 76.3853 105.343 75.2467 105.406C73.7779 105.488 72.8808 106.122 72.3255 107.491C71.4184 109.728 70.4667 111.947 69.515 114.166C69.1297 115.064 68.7444 115.962 68.3621 116.861L67.8665 118.027L48.7638 109.908ZM63.5725 50.1287C63.846 49.4874 64.1241 48.8353 64.4081 48.1672C64.2085 48.0823 64.0222 48.0043 63.8451 47.9301C63.4915 47.7819 63.1745 47.6491 62.8611 47.5082C61.8336 47.046 60.7956 46.603 59.7575 46.16C57.4532 45.1767 55.1488 44.1932 52.959 42.9995C43.6061 37.901 38.5597 25.5203 41.8237 15.3946C42.8216 12.299 44.1055 9.29573 45.3896 6.2921C46.0116 4.83723 46.6336 3.38226 47.2231 1.91665C47.6664 0.814661 48.3438 0.0473485 49.6 0.00196454C50.8794 -0.0441635 51.5782 0.726869 52.0493 1.80505C53.5929 5.33768 56.2069 7.7506 59.7047 9.32565C66.6045 12.4331 71.1561 17.653 73.426 24.871C73.4911 25.078 73.568 25.2811 73.664 25.5343C73.7151 25.6692 73.7716 25.8183 73.8346 25.9898L74.4396 24.5666C75.1406 22.9174 75.8413 21.268 76.542 19.6186C78.446 15.1369 80.3499 10.6551 82.2604 6.17617C82.942 4.57831 84.2868 3.94095 85.6275 4.53764C86.9316 5.11808 87.3758 6.48233 86.7275 8.02799C85.9587 9.86096 85.1794 11.6894 84.4001 13.5178C84.0713 14.2892 83.7426 15.0605 83.4146 15.8322L82.0575 19.0252C82.3379 18.8886 82.5881 18.7651 82.819 18.6511C83.2617 18.4325 83.6332 18.2491 84.0096 18.0763C90.292 15.1932 96.7295 14.8185 103.166 17.3188C107.103 18.8482 110.933 19.2961 114.925 17.7746C115.904 17.4016 116.84 17.5359 117.586 18.3506C118.352 19.1889 118.428 20.1325 117.99 21.157C117.449 22.4203 116.918 23.6882 116.388 24.9561C115.297 27.5622 114.206 30.1682 113.029 32.7346C108.398 42.8327 96.5553 48.7738 85.7779 46.1153C83.021 45.4354 80.3695 44.3281 77.7183 43.2209C76.526 42.7229 75.3337 42.2249 74.1319 41.7659C73.813 41.6442 73.5 41.5076 73.1655 41.3617C73.002 41.2904 72.8335 41.2168 72.6567 41.1417C72.4243 41.688 72.2531 42.0909 72.082 42.4938C71.5213 43.8128 70.9609 45.132 70.4006 46.4512C69.0037 49.7398 67.6068 53.0285 66.2044 56.3147C65.509 57.9439 64.2237 58.5947 62.8698 58.0351C61.5147 57.4748 61.06 56.0754 61.7349 54.4636C62.3329 53.0354 62.9403 51.6112 63.5725 50.1287ZM101.856 21.9764C91.3344 17.678 79.1987 23.3715 75.6087 34.4216L76.4253 34.2204C81.1154 33.0642 85.6607 31.9438 90.2059 30.8232C90.609 30.7238 91.0116 30.6221 91.4142 30.5203C92.3021 30.296 93.19 30.0716 94.0837 29.8724C95.6609 29.5209 96.8619 30.1842 97.2176 31.5535C97.5849 32.9676 96.8141 34.1669 95.1851 34.5758C91.9539 35.3868 88.7193 36.1838 85.4846 36.9809C83.8244 37.39 82.1642 37.7991 80.5045 38.2101C80.2558 38.2717 80.0104 38.3469 79.7409 38.4295C79.609 38.47 79.4713 38.5122 79.3247 38.5554C91.0146 45.284 102.083 41.0135 107.223 33.0522C108.483 31.1008 109.44 28.9539 110.416 26.7665C110.866 25.7558 111.321 24.7364 111.811 23.7237C111.66 23.6938 111.54 23.6645 111.441 23.6401C111.272 23.5989 111.161 23.5718 111.053 23.5797C107.852 23.8137 104.819 23.1867 101.856 21.9764ZM66.962 40.9304C67.0455 41.0617 67.1354 41.2029 67.2335 41.3599C72.6468 30.5196 68.3266 18.4331 57.4731 13.6253C54.854 12.4653 52.5833 10.837 50.6974 8.67552C50.5633 8.52182 50.4184 8.37752 50.2455 8.20524C50.1548 8.11496 50.0565 8.017 49.9479 7.90597C49.5521 8.90127 49.126 9.87805 48.7021 10.8496C47.3007 14.0618 45.9241 17.2172 45.751 20.7975C45.3547 28.9953 50.0386 36.6881 57.548 39.9794C58.4154 40.3597 59.2881 40.7278 60.2385 41.1287C60.7018 41.3241 61.1836 41.5273 61.6922 41.7435C61.6079 41.5668 61.5385 41.415 61.4768 41.2803C61.3635 41.0326 61.2766 40.8427 61.1725 40.6627C59.4955 37.7612 57.8157 34.8613 56.1358 31.9614C55.3899 30.6736 54.6439 29.3858 53.8981 28.0979C53.8513 28.017 53.8037 27.9365 53.7561 27.856C53.598 27.5888 53.4398 27.3213 53.3102 27.0407C52.7344 25.7968 53.0923 24.5475 54.1982 23.8746C55.3501 23.1733 56.7071 23.4391 57.4641 24.654C58.3344 26.0512 59.155 27.4794 59.9755 28.9076C60.26 29.4029 60.5446 29.8982 60.8312 30.3921C61.8163 32.0902 62.7996 33.7893 63.783 35.4883C64.6986 37.0703 65.6142 38.6523 66.5312 40.2335C66.6606 40.4568 66.7993 40.6748 66.962 40.9304ZM7.73332 68.1953C7.26565 69.4463 5.80985 70.0874 4.56941 69.5884C3.37652 69.1084 2.76187 67.7104 3.21199 66.5013C3.6773 65.2525 5.13677 64.6105 6.37603 65.1099C7.57206 65.5918 8.18527 66.9858 7.73332 68.1953Z" fill="#0043BF"/>
</svg>
