<svg width="125" height="121" viewBox="0 0 125 121" fill="none" xmlns="http://www.w3.org/2000/svg">
<path fill-rule="evenodd" clip-rule="evenodd" d="M95.9116 34.2031L95.9113 34.2034C94.5053 35.5046 93.1524 36.7566 91.7498 37.9497C76.9961 50.4986 55.1893 50.5494 40.4029 38.0173C36.1376 34.4024 31.3945 31.9687 25.8561 31.095C23.5766 30.7354 22.8475 29.4366 23.5654 27.2457C24.8034 23.4686 26.5725 19.9584 28.8696 16.7167C29.9196 15.2353 31.267 14.8784 32.5104 15.7338C33.7211 16.5667 33.8238 17.9909 32.8994 19.5077C31.9289 21.0998 30.9915 22.7119 30.0261 24.3723L30.0257 24.373C29.6081 25.0911 29.1852 25.8183 28.7522 26.5569C29.2604 26.7182 29.7384 26.8652 30.195 27.0057L30.1951 27.0057L30.1951 27.0057C31.1347 27.2947 31.9838 27.5559 32.8187 27.8563C36.7672 29.2771 40.2313 31.4966 43.4338 34.2002C58.3036 46.7536 80.2423 44.8687 92.827 29.9901C92.9939 29.7927 93.1492 29.5855 93.346 29.3226L93.3462 29.3224L93.3472 29.321C93.4531 29.1796 93.5711 29.0221 93.7094 28.8414C93.0732 28.4527 92.4474 28.0634 91.8268 27.6772L91.8263 27.6769C90.3849 26.7801 88.9715 25.9006 87.5212 25.0871C86.6825 24.6168 85.802 24.2222 84.921 23.8274C84.3181 23.5572 83.7149 23.2869 83.1247 22.9921C82.4787 22.6696 82.0371 22.8007 81.5041 23.2487C79.6772 24.7847 77.8303 26.2966 75.9834 27.8086L75.9827 27.8092L75.9802 27.8112C75.3724 28.3088 74.7646 28.8064 74.1576 29.3048C73.2525 30.0479 72.258 30.2409 71.2185 29.6507C70.2713 29.1128 69.8029 28.212 70.0864 27.1772C70.2648 26.5255 70.731 25.8639 71.2467 25.4101C72.4626 24.34 73.7198 23.3168 75.1007 22.1931C75.6569 21.7404 76.2331 21.2714 76.8348 20.7765C76.0903 20.6441 75.382 20.51 74.6973 20.3804C73.2739 20.111 71.9527 19.861 70.6217 19.6856C63.6752 18.7701 56.8366 19.33 50.1084 21.3006C48.4042 21.7997 47.0361 21.1376 46.6598 19.7322C46.2729 18.2872 47.0484 17.0107 48.7897 16.6162C50.9251 16.1326 53.0756 15.7151 55.226 15.2977C56.1423 15.1198 57.0585 14.942 57.9736 14.759C58.1777 14.7181 58.3813 14.6743 58.6305 14.6208L58.6307 14.6207L58.6311 14.6207C58.7595 14.5931 58.9 14.5629 59.059 14.5291C58.8776 14.361 58.707 14.2057 58.5447 14.0579C58.212 13.7549 57.9141 13.4837 57.6295 13.1992C56.5934 12.1636 56.517 10.6884 57.4318 9.69952C58.337 8.72108 59.721 8.61738 60.8284 9.54897C61.6311 10.2242 62.4165 10.9201 63.2018 11.6161L63.202 11.6163L63.2021 11.6164C64.031 12.3509 64.8599 13.0854 65.7091 13.7955C66.1136 14.1336 66.6884 14.4257 67.2 14.4529C75.3703 14.8873 83.0367 17.0739 90.2222 20.9783C90.3056 21.0237 90.3943 21.0593 90.5593 21.1257L90.5594 21.1257C90.6646 21.1681 90.8008 21.2229 90.9865 21.3006C90.8581 21.0867 90.751 20.9034 90.6562 20.7409L90.656 20.7406L90.6559 20.7406C90.4828 20.444 90.3502 20.217 90.2023 20.0006C81.4211 7.14752 65.1003 1.66179 50.3515 6.60133C50.2544 6.63388 50.1575 6.66772 50.0606 6.70156L50.0605 6.70157C49.7736 6.80177 49.4864 6.90207 49.1919 6.96964C47.7995 7.28916 46.5502 6.61389 46.1806 5.36388C45.803 4.08642 46.4069 2.7582 47.7758 2.3517C48.1983 2.22626 48.621 2.09754 49.0442 1.96866L49.0443 1.96862C51.0731 1.35084 53.1137 0.729459 55.1933 0.448744C69.1648 -1.43823 81.1351 2.60595 90.8369 12.9583C94.3831 16.7422 96.9423 21.162 98.8024 26.0029C99.051 26.6496 99.5251 27.2434 100.002 27.7627C101.191 29.0566 102.391 30.3401 103.591 31.6236L103.592 31.6247L103.593 31.6252C105 33.1305 106.408 34.6358 107.797 36.1578C108.584 37.0201 108.679 38.0827 108.061 39.1019C107.496 40.0327 106.571 40.4832 105.556 40.1556C104.877 39.9362 104.239 39.388 103.741 38.8418C102.229 37.1817 100.75 35.4913 99.3792 33.9252L99.3785 33.9244L99.3758 33.9213C98.8911 33.3674 98.4201 32.8291 97.966 32.3132C97.2618 32.9536 96.5806 33.584 95.9116 34.2031ZM0 76.6327C0.120439 75.9713 0.232257 75.3079 0.344074 74.6445C0.589395 73.1889 0.834709 71.7335 1.17104 70.2994C2.55944 64.3803 5.27524 59.1101 9.05814 54.3614C9.60863 53.6704 9.93913 52.7593 10.2137 51.8996C10.7111 50.3413 11.1886 48.7766 11.666 47.2119L11.666 47.2118C12.278 45.2061 12.89 43.2004 13.5441 41.2086C13.942 39.9971 15.0386 39.4263 16.1212 39.5951C17.2441 39.7701 18.0232 40.4259 18.1844 41.5414C18.27 42.1344 18.0665 42.7977 17.8823 43.3979L17.8757 43.4193C17.3241 45.219 16.7551 47.0133 16.1861 48.8076C15.8839 49.7606 15.5817 50.7136 15.282 51.6674C15.244 51.7885 15.2316 51.9177 15.2173 52.0666C15.21 52.1427 15.2022 52.224 15.1902 52.3119C19.6047 52.9865 23.8051 54.2176 27.699 56.3122C39.9232 62.8875 47.0959 73.0473 49.1004 86.8218C49.7705 91.4262 49.3688 95.9871 48.5595 100.544C47.7148 105.301 48.2935 109.944 49.9386 114.471C50.1588 115.077 50.3907 115.716 50.4169 116.348C50.4667 117.547 49.6194 118.419 48.2176 118.716C37.6976 120.939 27.8001 119.239 18.7511 113.499C7.84627 106.583 1.78252 96.5015 0.222012 83.6853C0.195662 83.4686 0.137215 83.2559 0.0787696 83.0432L0.078766 83.0431C0.0514132 82.9436 0.0240611 82.844 0 82.7441V76.6327ZM14.354 57.5061L14.354 57.5061C14.2941 57.7075 14.2406 57.8877 14.2437 58.067C14.2509 58.4889 14.258 58.9107 14.2651 59.3326C14.3215 62.6898 14.3779 66.0471 14.5134 69.4013C14.5292 69.7928 15.0943 70.3372 15.5245 70.5086C17.7676 71.4024 20.0309 72.2457 22.2941 73.0889C22.8845 73.3089 23.4749 73.5289 24.065 73.7498C25.0575 74.1212 25.9128 74.6312 26.1213 75.7843C26.4804 77.7706 24.7136 79.1802 22.6978 78.4649C21.136 77.9107 19.5873 77.3197 18.0346 76.7271L18.0334 76.7266C17.3566 76.4683 16.6789 76.2097 15.9991 75.9537C15.9839 76.0126 15.9671 76.0615 15.9529 76.1028C15.9283 76.1745 15.9114 76.2238 15.9236 76.2642C15.9867 76.4726 16.0489 76.6814 16.111 76.8902L16.1113 76.8909C16.3157 77.5775 16.5202 78.2642 16.7569 78.9396C19.4292 86.5662 23.6871 93.1696 29.512 98.7661C30.7726 99.9772 30.883 101.494 29.8563 102.53C28.7984 103.598 27.3686 103.519 26.102 102.233C24.7043 100.813 23.337 99.3597 22.0157 97.8685C21.3609 97.1296 20.7512 96.3505 20.1027 95.5219L20.1026 95.5216C19.8028 95.1385 19.4947 94.7449 19.17 94.3397C19.1195 94.56 19.0733 94.758 19.0306 94.9414C18.9468 95.3014 18.8761 95.6049 18.8109 95.9096C18.4383 97.6526 17.3246 98.5025 15.8202 98.187C14.4008 97.8892 13.6932 96.6299 14.0227 94.9747C14.1397 94.387 14.2605 93.8 14.3814 93.213C14.6706 91.8079 14.9599 90.4028 15.1964 88.9889C15.2881 88.4404 15.2144 87.7672 14.9699 87.2736C12.0346 81.3468 10.1194 75.1258 9.46928 68.5319C9.35922 67.4157 9.28014 66.2963 9.1977 65.1293L9.19769 65.1292L9.19767 65.1288C9.15874 64.5778 9.11907 64.0161 9.07502 63.4392C3.42934 73.1883 2.82895 88.0084 11.5033 100.156C20.4371 112.666 35.1832 116.162 44.6618 114.276C44.6513 114.216 44.6425 114.155 44.6337 114.093C44.6149 113.962 44.5959 113.83 44.5594 113.703C43.0668 108.511 43.0242 103.279 44.0021 97.9902C46.6638 83.5941 39.7771 68.7927 27.0719 61.5155C23.1579 59.2736 18.9906 57.7817 14.4419 57.1868C14.4152 57.3001 14.3838 57.4057 14.354 57.5061ZM124.63 83.5745L124.63 83.5747L124.63 83.575C124.385 85.0521 124.14 86.5292 123.781 87.9781C119.137 106.735 102.104 119.309 82.8446 118.224C82.088 118.181 81.3346 118.085 80.5811 117.988L80.5809 117.988C79.8835 117.898 79.186 117.809 78.4858 117.762C77.7415 117.713 76.9647 117.782 76.2353 117.945C74.651 118.298 73.0704 118.668 71.4897 119.038L71.4896 119.038L71.4886 119.038C69.3583 119.536 67.2281 120.035 65.0893 120.493C63.579 120.816 62.3551 119.875 62.1511 118.463C61.9534 117.095 62.8026 116.016 64.296 115.708C66.9991 115.15 69.7011 114.588 72.4001 114.012C72.6956 113.949 72.9828 113.847 73.2608 113.749L73.2612 113.749C73.3862 113.704 73.5095 113.661 73.6307 113.621C73.4211 112.841 73.2015 112.07 72.9834 111.304C72.5169 109.666 72.0566 108.05 71.7126 106.409C67.74 87.4634 78.6547 67.793 96.8445 61.2503C102.265 59.3006 106.898 56.3644 110.542 51.8732C111.918 50.178 113.396 50.1972 114.851 51.8387C120.558 58.2788 123.883 65.7736 124.759 74.3498C124.784 74.5934 124.843 74.8336 124.902 75.0738C124.93 75.1859 124.958 75.298 124.982 75.4105V81.5219C124.857 82.2042 124.744 82.8894 124.63 83.5745ZM108.285 89.0344L108.727 88.8902L108.73 88.8891C109.034 88.7899 109.322 88.696 109.61 88.6034C111.315 88.0557 112.628 88.5684 113.128 89.9759C113.62 91.3618 112.875 92.6449 111.201 93.225C110.533 93.4566 109.86 93.6769 109.188 93.8971L109.187 93.8972L109.187 93.8973C108.007 94.2837 106.827 94.6701 105.671 95.1178C105.046 95.3596 104.391 95.8348 104.024 96.3861C99.8651 102.641 94.6774 107.846 88.4046 111.968C88.0055 112.23 87.6033 112.488 87.1723 112.764L87.1717 112.764C86.9602 112.899 86.7418 113.039 86.5135 113.186C96.6934 114.823 111.385 104.968 116.943 92.9172C123.067 79.6383 119.511 64.7837 112.566 56.9611C108.791 60.9881 104.224 63.74 99.0553 65.6347C82.5873 71.6698 73.3227 87.8954 76.4422 105.21C76.714 106.718 77.1547 108.196 77.6317 109.796L77.6318 109.796C77.8645 110.576 78.1059 111.386 78.3406 112.242C79.353 111.619 80.3324 111.012 81.2901 110.417L81.2911 110.417C83.5727 109.001 85.7313 107.662 87.9195 106.373C89.2792 105.573 89.5836 104.636 89.2496 103.091C88.6327 100.238 88.2353 97.3338 87.8392 94.438L87.837 94.4222C87.6461 93.0269 88.511 91.959 89.7652 91.7551C91.1369 91.532 92.2033 92.25 92.5748 93.6602C92.646 93.9311 92.6919 94.2091 92.7377 94.4865L92.7594 94.6177C93.0324 96.2516 93.3038 97.8856 93.5886 99.6008L93.8408 101.119C93.9745 100.995 94.0946 100.887 94.2043 100.789C94.4117 100.603 94.5821 100.45 94.7378 100.284C98.7492 95.9908 101.951 91.1511 104.166 85.7125C104.924 83.85 105.519 81.9207 106.114 79.9916L106.114 79.9915L106.114 79.9905C106.37 79.1611 106.625 78.3317 106.894 77.5077C107.359 76.0839 108.563 75.3488 109.891 75.6976C111.151 76.0285 111.853 77.2275 111.594 78.6546C111.492 79.2135 111.365 79.7734 111.188 80.3121C110.488 82.444 109.776 84.5722 109.052 86.7371C108.798 87.4978 108.542 88.263 108.285 89.0344ZM41.2658 9.98146C41.3047 8.60298 40.2312 7.47631 38.8695 7.46679C37.5816 7.45777 36.4568 8.53576 36.4096 9.82457C36.361 11.1477 37.4986 12.3262 38.8342 12.3367C40.1513 12.3468 41.2283 11.3036 41.2658 9.98146Z" fill="#1D5C98"/>
</svg>
