<svg width="116" height="116" viewBox="0 0 116 116" fill="none" xmlns="http://www.w3.org/2000/svg">
<path fill-rule="evenodd" clip-rule="evenodd" d="M38.2437 11.9352C38.0278 7.15864 35.87 3.12741 32.1719 0H30.8126C30.5051 0.304682 30.1841 0.599267 29.8631 0.89385L29.8631 0.893879L29.863 0.893928C29.1607 1.53846 28.4583 2.18298 27.8975 2.93319C25.4259 6.24008 24.3345 10.0239 24.3483 14.1475C24.3558 16.4047 24.3544 18.662 24.353 20.9193C24.3509 24.1672 24.3489 27.4151 24.3735 30.6628C24.3801 31.5377 24.0966 31.9956 23.3399 32.4247C18.4577 35.1918 13.6024 38.0069 8.74814 40.8232C4.66772 43.1906 1.86006 46.6066 0.368068 51.0933C0.305881 51.2804 0.214859 51.4579 0.123856 51.6353L0.123853 51.6353L0.123832 51.6354C0.0815877 51.7178 0.0393483 51.8001 0 51.8834V53.2428C0.478036 54.3677 1.40267 54.8206 2.54458 55.0555C7.00814 55.9746 11.2639 55.4134 15.2644 53.2413C17.1048 52.242 18.9157 51.1884 20.7266 50.1348C21.5891 49.633 22.4517 49.1311 23.3174 48.6351C23.5473 48.5034 23.782 48.38 24.0716 48.2279L24.0722 48.2275L24.0724 48.2275C24.2238 48.1479 24.3903 48.0604 24.5789 47.9597V49.4289L24.5787 53.1433C24.5784 58.0219 24.5781 62.9004 24.5825 67.779L24.5825 67.7995C24.5829 68.2818 24.5834 68.7734 24.6722 69.2441C24.8731 70.3094 25.7764 71.0071 26.8606 71.0004C27.9407 70.9937 28.8373 70.2792 29.0237 69.2144C29.1062 68.7424 29.1065 68.2523 29.1068 67.77L29.1068 67.7481C29.1095 63.6958 29.1097 59.6434 29.1099 55.5911C29.1101 52.5073 29.1102 49.4236 29.1115 46.3398C29.1121 44.7832 30.9429 43.7678 32.3273 44.458C33.326 44.9558 33.6743 45.5809 33.672 46.7326C33.6375 64.0875 33.6391 81.4425 33.6407 98.7975C33.641 102.473 33.6414 106.149 33.6414 109.825V111.38H29.1102V110.039L29.1103 106.368C29.1106 100.946 29.1108 95.525 29.1063 90.1036C29.1059 89.6145 29.1044 89.1153 29.0125 88.6384C28.8178 87.6275 27.9496 86.9461 26.9111 86.9184C25.8224 86.8894 24.8968 87.5676 24.6824 88.6201C24.5854 89.0954 24.5834 89.5953 24.583 90.084C24.5783 95.3363 24.5785 100.589 24.5788 105.841V105.847L24.5789 110.02V111.47H23.2423C21.4779 111.47 19.7135 111.472 17.949 111.474C12.9927 111.48 8.0363 111.486 3.08038 111.446C1.68722 111.434 0.66584 111.826 0 113.056V115.999C38.6666 116 77.3334 116 116 115.999V113.056C115.332 111.83 114.313 111.439 112.92 111.446C105.611 111.481 98.3013 111.477 90.9917 111.473H90.9874C88.6341 111.471 86.2807 111.47 83.9274 111.47H82.6016V105.126H84.047C86.4423 105.126 88.8375 105.127 91.2328 105.129C97.0296 105.132 102.826 105.134 108.623 105.119C112.489 105.11 115.004 101.868 114.004 98.1359C111.196 87.652 108.352 77.1773 105.496 66.706C104.772 64.0483 102.748 62.5371 99.9977 62.5359C82.6321 62.5285 65.2664 62.5288 47.9008 62.5359C45.1455 62.5372 43.1404 64.0693 42.3972 66.702C42.1403 67.612 41.8972 68.5258 41.6542 69.4396L41.6541 69.4397L41.6541 69.4399L41.6541 69.44L41.654 69.4401L41.654 69.4403L41.654 69.4404L41.6539 69.4406L41.6539 69.4407C41.5095 69.9834 41.3652 70.526 41.2179 71.0679C40.565 73.4702 39.9105 75.8721 39.2561 78.2739L38.4099 81.3797L38.2575 81.3533V47.9576C38.4069 48.0371 38.5435 48.1086 38.6712 48.1755L38.6717 48.1757C38.9224 48.3069 39.139 48.4202 39.3509 48.5417C40.2349 49.0484 41.115 49.5622 41.9951 50.076C43.8836 51.1784 45.7721 52.2809 47.6983 53.313C51.7846 55.5022 56.1286 56.0263 60.6447 54.9512C62.5127 54.5062 63.1323 53.4174 62.5894 51.5938C61.1265 46.6805 58.0659 43.0732 53.6303 40.5537C51.4287 39.3032 49.2372 38.035 47.0456 36.7668C44.5696 35.334 42.0936 33.9012 39.6032 32.4939C38.7112 31.9898 38.3651 31.4411 38.3696 30.3905C38.3747 29.1654 38.3837 27.9399 38.3928 26.7143C38.4294 21.785 38.4659 16.8538 38.2437 11.9352ZM38.2384 105.158H65.2426V111.404H38.2384V105.158ZM89.7531 92.511L90.854 100.56H76.2636V92.511H89.7531ZM71.5583 100.528H57.0163L58.097 92.5021H71.5583V100.528ZM95.4327 100.583L94.3379 92.4975H107.802C107.94 93.0142 108.081 93.5336 108.223 94.0554L108.227 94.0707L108.233 94.0927L108.234 94.0959L108.234 94.0961L108.234 94.0964L108.234 94.0967L108.234 94.097L108.234 94.0972L108.234 94.0975L108.234 94.0978L108.234 94.0985C108.716 95.8719 109.205 97.6725 109.623 99.4895C109.689 99.7775 109.111 100.531 108.823 100.536C105.219 100.591 101.614 100.588 97.9788 100.584H97.9782H97.9775H97.9768H97.9762H97.9755H97.9748H97.9742H97.9735C97.1284 100.584 96.2816 100.583 95.4327 100.583ZM40.0955 92.498H53.5202C53.1505 95.2192 52.792 97.8594 52.4205 100.595L50.3906 100.595L46.4782 100.595C45.8069 100.595 45.1356 100.596 44.4643 100.597C42.7961 100.599 41.1279 100.602 39.46 100.589C38.3908 100.582 38.0429 100.193 38.2958 99.1937C38.6956 97.6133 39.1267 96.0409 39.5619 94.453L39.562 94.4525C39.7398 93.8041 39.9182 93.1531 40.0955 92.498ZM89.1184 87.8458H76.2308V79.8276H88.038L89.1184 87.8458ZM59.8189 79.8168H71.5962V87.8375H58.7349L59.8189 79.8168ZM92.6138 79.8172H104.358L105.157 82.7656L106.536 87.8535H93.706L92.6138 79.8172ZM55.2443 79.8139L54.1446 87.8766H41.3629L43.5343 79.8139H55.2443ZM57.3042 50.6879C57.307 50.7486 57.3103 50.8213 57.319 50.9108C55.0055 51.0748 52.7952 50.8283 50.8514 49.7835C47.4445 47.9522 44.0832 46.0359 40.7513 44.1364L40.7493 44.1353C39.4177 43.3761 38.0908 42.6196 36.7675 41.8723L39.2515 37.5534L39.2697 37.5621L39.295 37.5737L39.3401 37.5942C39.4621 37.6494 39.663 37.7403 39.8532 37.8499C41.3246 38.6978 42.7949 39.5476 44.2653 40.3974L44.2684 40.3991L44.2703 40.4002C46.7125 41.8116 49.1547 43.223 51.6013 44.6263C53.8056 45.8906 55.6143 47.5504 56.8979 49.758C57.0302 49.9857 57.1597 50.2158 57.2694 50.4546C57.2964 50.5132 57.2995 50.5826 57.3042 50.6879ZM19.6406 39.7364L19.641 39.7362L19.6411 39.7362L19.6412 39.7361L19.6413 39.736L19.6414 39.736L19.6415 39.7359L19.6416 39.7359L19.6417 39.7358C20.9262 38.9979 22.2052 38.2632 23.4696 37.5228L25.95 41.8116C25.9261 41.8283 25.8939 41.8525 25.8552 41.8816C25.7413 41.9672 25.5709 42.0952 25.3878 42.2012C24.5478 42.6869 23.7082 43.1729 22.8685 43.6589L22.8659 43.6604L22.8634 43.6619L22.8608 43.6633L22.8583 43.6648L22.8502 43.6695L22.8476 43.671L22.8451 43.6725L22.8425 43.674C19.7439 45.4675 16.6453 47.2611 13.5362 49.0362C10.877 50.5545 7.8822 51.2063 5.42265 50.8233C5.46776 50.7208 5.50521 50.6154 5.54197 50.512C5.6195 50.2938 5.69394 50.0842 5.83062 49.9296C6.21761 49.4917 6.58703 49.0249 6.95681 48.5576L6.95688 48.5575C7.84159 47.4395 8.72844 46.3188 9.86325 45.5847C13.0618 43.5157 16.3694 41.6156 19.6405 39.7365L19.6406 39.7364ZM29.0261 12.0288C29.0713 9.89762 30.2315 7.30244 31.4424 5.90195C32.7004 7.62243 33.6191 9.55211 33.674 11.6177C33.779 15.5733 33.7594 19.5321 33.7397 23.4925V23.4929L33.7397 23.4944C33.7319 25.0667 33.7241 26.6393 33.7241 28.212H28.9814C28.9778 28.2009 28.9711 28.186 28.963 28.1682C28.9393 28.1162 28.9044 28.0395 28.9049 27.963C28.9124 26.5522 28.9165 25.1414 28.9206 23.7305V23.7305V23.7305V23.7304V23.7304V23.7304V23.7303V23.7303V23.7303C28.9319 19.8293 28.9433 15.9283 29.0261 12.0288ZM87.4054 75.1706H76.2286V67.1358H86.3069L87.4054 75.1706ZM61.548 67.1024H71.5887V75.1576H60.4558L61.548 67.1024ZM103.083 75.144H91.9812L90.8916 67.146C91.0045 67.1365 91.1142 67.1249 91.2215 67.1135C91.4436 67.09 91.6559 67.0675 91.8683 67.0669C92.7054 67.0648 93.5426 67.0675 94.3798 67.0701C96.1096 67.0756 97.8394 67.0811 99.5684 67.0453C100.529 67.0256 101.02 67.3631 101.254 68.2944C101.658 69.9012 102.093 71.5 102.537 73.1304L102.537 73.131C102.718 73.7958 102.901 74.4659 103.083 75.144ZM54.8455 67.0668C55.5454 67.0678 56.2521 67.0688 56.9677 67.0688L55.8807 75.1347H44.8056C44.9636 74.5589 45.1201 73.984 45.2762 73.4101L45.2766 73.4087L45.2766 73.4086L45.2767 73.4085L45.2767 73.4084L45.2767 73.4083L45.2767 73.4082L45.2767 73.4082L45.2768 73.4081L45.2768 73.408C45.792 71.5147 46.3042 69.6324 46.8618 67.7636C46.9497 67.4685 47.4503 67.1042 47.765 67.0989C50.096 67.06 52.4276 67.0634 54.8411 67.0668H54.8416H54.8422H54.8427H54.8433H54.8438H54.8444H54.8449H54.8455ZM77.8911 105.195V111.44H69.9112V105.195H77.8911ZM31.4 32.6204C33.1772 32.6318 34.6436 34.0954 34.6458 35.8605C34.6482 37.6003 33.1541 39.1166 31.4115 39.1432C29.6346 39.1702 28.0837 37.6059 28.1134 35.8165C28.1426 34.0461 29.6204 32.6093 31.4 32.6204ZM90.1926 3.06879C90.275 1.67415 89.8065 0.664794 88.5861 0H87.2265C86.0031 0.662922 85.5369 1.67263 85.6198 3.06797C85.6761 4.01291 85.6643 4.96157 85.6525 5.91057V5.91075V5.91093V5.91111V5.91128V5.91146V5.91164V5.91182V5.91199C85.6451 6.50615 85.6377 7.10044 85.647 7.69404C85.6691 9.11699 86.6398 10.1466 87.9057 10.1467C89.1768 10.1472 90.142 9.12553 90.1653 7.69497C90.1751 7.09639 90.1677 6.49707 90.1603 5.89787V5.89772V5.89756V5.8974V5.89724V5.89709V5.89693V5.89677V5.89662C90.1486 4.95258 90.137 4.00885 90.1926 3.06879ZM116 28.7738C115.333 29.9908 114.326 30.4634 112.931 30.3807C111.989 30.3247 111.044 30.3364 110.099 30.3481C109.5 30.3555 108.902 30.3629 108.304 30.3532C106.875 30.3299 105.854 29.3648 105.853 28.0928C105.852 26.8233 106.876 25.8575 108.305 25.8348C108.899 25.8254 109.494 25.8329 110.088 25.8403H110.088H110.089H110.089H110.089H110.089H110.089H110.089C111.038 25.8522 111.987 25.8642 112.932 25.8076C114.328 25.7242 115.334 26.1959 116 27.4144V28.7738ZM87.9667 41.4894C95.3528 41.4675 101.315 35.4635 101.303 28.061C101.29 20.6645 95.3059 14.6975 87.9027 14.6987C80.4552 14.7 74.483 20.7124 74.5098 28.1817C74.5364 35.5548 80.5598 41.5115 87.9667 41.4894ZM87.946 19.2319C92.8515 19.2464 96.773 23.1903 96.7686 28.1052C96.7641 33.013 92.8293 36.9499 87.9223 36.9566C82.9647 36.9632 79.0176 32.9924 79.0439 28.0248C79.0698 23.1248 83.026 19.2172 87.946 19.2319ZM101.471 15.8663C101.656 15.9914 101.835 16.1131 101.997 16.2381C102.229 16.148 102.438 16.0833 102.623 16.0259C102.964 15.9202 103.225 15.8395 103.401 15.6709L103.512 15.5648C105.049 14.0945 106.589 12.6213 108.02 11.0511C108.728 10.274 108.513 9.01497 107.79 8.26453C107.04 7.48613 105.727 7.25915 104.918 7.99484C103.335 9.43453 101.833 10.9685 100.373 12.5335C99.7594 13.1906 99.6978 14.1345 100.246 14.8384C100.573 15.2582 101.036 15.5718 101.471 15.8663ZM108.625 46.5736C108.49 46.743 108.361 46.9402 108.231 47.1406C107.926 47.6083 107.609 48.0937 107.166 48.2845C106.527 48.5598 105.384 48.5351 104.893 48.1253C103.284 46.7809 101.82 45.2492 100.404 43.6946C99.6245 42.8381 99.7986 41.6424 100.592 40.828C101.416 39.9822 102.655 39.8027 103.546 40.6144C105.072 42.0057 106.509 43.4984 107.93 44.999C108.132 45.2127 108.239 45.5175 108.372 45.9007L108.372 45.9009C108.443 46.1038 108.521 46.3286 108.625 46.5736ZM74.3711 40.3273L74.3709 40.3272L74.3708 40.3271L74.3706 40.327L74.3705 40.3269C74.1762 40.1897 73.9835 40.0536 73.8043 39.9106C73.5674 40.0159 73.3488 40.0963 73.1508 40.1691C72.7748 40.3073 72.4725 40.4185 72.258 40.6222C70.7591 42.0456 69.2731 43.4887 67.873 45.008C67.1142 45.8312 67.2531 47.1009 67.9937 47.8956C68.7598 48.7177 70.1038 48.9285 70.9551 48.151C72.5078 46.7335 73.9824 45.2245 75.418 43.6871C76.0298 43.0321 76.1222 42.096 75.5845 41.3815C75.2677 40.9604 74.8155 40.6411 74.3711 40.3273ZM76.0505 14.0031C75.9255 14.1651 75.8038 14.3448 75.6786 14.5296C75.384 14.9645 75.0704 15.4274 74.6506 15.7535C73.9469 16.2999 73.0056 16.2391 72.3469 15.6235C70.7826 14.162 69.2463 12.6627 67.8069 11.0801C67.0699 10.2698 67.2986 8.95799 68.078 8.20802C68.8292 7.48531 70.0899 7.27178 70.8649 7.97917C72.4425 9.4192 73.9234 10.9677 75.4013 12.5129L75.4837 12.5991C75.6525 12.7755 75.7331 13.036 75.8386 13.3771L75.8387 13.3774C75.8959 13.5625 75.9605 13.7712 76.0505 14.0031ZM64.0113 30.362C64.3064 30.359 64.6015 30.3559 64.8964 30.3561C65.1695 30.3564 65.4426 30.3588 65.7157 30.3612C66.3457 30.3669 66.9758 30.3725 67.605 30.3512C68.9641 30.305 69.947 29.3491 69.9585 28.1089C69.97 26.8747 68.9833 25.8683 67.6362 25.8412C65.7935 25.8042 63.9488 25.8017 62.1062 25.8424C60.7547 25.8721 59.7974 26.879 59.821 28.1341C59.8438 29.3489 60.7733 30.2898 62.0751 30.3472C62.7194 30.3756 63.3653 30.3688 64.0113 30.362ZM90.1678 51.1415C90.1681 51.4152 90.1706 51.6891 90.1732 51.9629C90.1791 52.5922 90.185 53.2216 90.1623 53.8498C90.1132 55.2145 89.1601 56.1783 87.908 56.1797C86.6541 56.1809 85.6788 55.2176 85.6527 53.8548C85.6173 52.0122 85.6137 50.1677 85.6552 48.3253C85.6851 46.9939 86.7289 46.0078 87.9595 46.0423C89.155 46.0755 90.1061 47.0325 90.1596 48.3203C90.1864 48.9661 90.18 49.6133 90.1735 50.2605C90.1706 50.5542 90.1677 50.8479 90.1678 51.1415ZM26.8533 81.1961C28.0957 81.1917 29.0726 80.2198 29.0842 78.9765C29.0957 77.7326 28.1375 76.7458 26.8936 76.7209C25.6456 76.6957 24.6484 77.6386 24.6096 78.8802C24.5694 80.1725 25.5656 81.2007 26.8533 81.1961Z" fill="#52007C"/>
</svg>
