<svg width="141" height="32" viewBox="0 0 141 32" fill="none" xmlns="http://www.w3.org/2000/svg">
<path fill-rule="evenodd" clip-rule="evenodd" d="M32.2319 5.03293C31.7548 5.32778 28.041 7.18986 24.8056 7.18986C20.6756 7.18986 19.5109 9.22853 18.7236 10.6066C18.4144 11.1479 18.1634 11.5873 17.8138 11.7612C16.574 12.378 16.0547 11.6772 15.9037 11.0155C15.6334 9.83183 16.0739 8.68395 16.234 8.26665L16.2342 8.26618C16.2438 8.24123 16.2523 8.21889 16.2597 8.19933C16.3898 7.85322 18.0297 4.95757 22.4922 3.9087C25.2946 3.2499 26.7317 3.35702 28.0802 3.45753C29.2518 3.54487 30.3566 3.62721 32.2319 3.19789C35.0534 2.55197 37.041 0.564192 37.388 -0.000128C34.7855 10.4645 25.6287 12.2229 22.4922 12.2229C21.2419 12.2229 19.433 9.6415 23.7269 8.98736C28.0208 8.33338 31.9173 5.50726 32.2319 5.03293ZM5.87505 26.6029C6.35219 26.3081 10.066 24.446 13.3015 24.446C17.4314 24.446 18.5961 22.4073 19.3833 21.0291C19.6926 20.4878 19.9436 20.0485 20.2931 19.8745C21.5328 19.2578 22.0523 19.9587 22.2031 20.6203C22.4736 21.805 22.0323 22.954 21.8725 23.3702L21.8472 23.4364C21.7171 23.7826 20.0771 26.6783 15.6146 27.7271C12.8122 28.3859 11.3752 28.2788 10.0268 28.1783C8.8552 28.091 7.75045 28.0086 5.87505 28.438C3.05336 29.0837 1.06596 31.0716 0.718959 31.6359C3.32126 21.1712 12.4784 19.4129 15.6146 19.4129C16.8649 19.4129 18.6739 21.9943 14.38 22.6483C10.086 23.3025 6.18948 26.1284 5.87505 26.6029ZM0.0679405 25.3634C0.441206 22.3368 1.0793 17.1628 19.0535 17.1628C28.2812 17.1628 38.1069 15.5326 38.1069 5.75181C38.0828 5.91646 38.0613 6.09043 38.0389 6.27215C37.6657 9.29888 37.0278 14.4731 19.0535 14.4731C9.82573 14.4731 -0.000141 16.1033 -0.000141 25.8839C0.0240628 25.7192 0.0455241 25.5452 0.0679405 25.3634ZM40.9831 24.1117L44.939 7.57184H55.7346L54.972 10.6268H47.894L47.1315 13.9681H53.3753L52.6366 16.9756H46.3927L45.4395 21.0329H53.0655L52.3028 24.1117H40.9831ZM65.8091 24.1595C66.6036 23.9685 67.3265 23.7139 67.9778 23.3958L67.5727 20.3646C67.0166 20.6192 66.413 20.826 65.7616 20.9851C65.1261 21.1442 64.4268 21.2239 63.6645 21.2239C62.5204 21.2239 61.6389 20.9057 61.0192 20.2692C60.4153 19.6326 60.1135 18.6144 60.1135 17.2142C60.1135 16.2913 60.2486 15.4161 60.5186 14.5887C60.7888 13.7614 61.1781 13.0373 61.6864 12.4169C62.2106 11.7803 62.8303 11.2792 63.5453 10.9132C64.2761 10.5473 65.0942 10.3642 65.9998 10.3642C66.6036 10.3642 67.1676 10.428 67.692 10.5552C68.2162 10.6824 68.8119 10.9212 69.4792 11.2711L70.8137 8.38323C70.0035 7.93779 69.2249 7.62752 68.4783 7.45242C67.7474 7.27744 67.0008 7.18986 66.2381 7.18986C64.6336 7.18986 63.2116 7.49222 61.9723 8.0969C60.749 8.70144 59.7084 9.48906 58.8504 10.4597C58.0084 11.4143 57.365 12.5043 56.9202 13.7295C56.4912 14.9547 56.2766 16.1878 56.2766 17.429C56.2766 18.511 56.4355 19.4894 56.7533 20.3646C57.0712 21.2239 57.516 21.9558 58.0879 22.5603C58.6757 23.165 59.3748 23.6344 60.185 23.9685C61.0111 24.2868 61.9168 24.446 62.9018 24.446C64.0457 24.446 65.0148 24.3505 65.8091 24.1595ZM79.9924 10.3882C79.2619 10.3882 78.5787 10.579 77.9433 10.9608C77.3236 11.3428 76.7755 11.852 76.2989 12.4884C75.8381 13.1249 75.4728 13.8568 75.2025 14.6842C74.9485 15.5116 74.8214 16.3629 74.8214 17.238C74.8214 18.4314 75.0673 19.402 75.5598 20.1498C76.0688 20.8817 76.887 21.2478 78.0143 21.2478C78.7457 21.2478 79.4208 21.0568 80.0405 20.6748C80.6761 20.293 81.224 19.7838 81.685 19.1474C82.1615 18.511 82.5269 17.787 82.7807 16.9756C83.051 16.148 83.1862 15.2889 83.1862 14.3979C83.1862 13.2045 82.9317 12.2418 82.4234 11.5099C81.9307 10.762 81.1205 10.3882 79.9924 10.3882ZM77.6333 24.446C76.6641 24.446 75.7748 24.2868 74.9643 23.9685C74.154 23.6504 73.4552 23.1969 72.8671 22.6082C72.279 22.0035 71.8185 21.2716 71.4849 20.4123C71.1672 19.5532 71.0083 18.5825 71.0083 17.5006C71.0083 16.2594 71.2228 15.0263 71.6518 13.8011C72.0805 12.576 72.6924 11.478 73.4868 10.5075C74.2973 9.52093 75.2822 8.72541 76.442 8.1207C77.6017 7.50016 78.9125 7.18986 80.3741 7.18986C81.3433 7.18986 82.2327 7.34896 83.0431 7.6672C83.8534 7.98554 84.5522 8.44685 85.1404 9.05155C85.7279 9.64022 86.1809 10.3642 86.4987 11.2235C86.8323 12.0827 86.999 13.0533 86.999 14.1353C86.999 15.3763 86.7848 16.6174 86.3555 17.8585C85.9429 19.0838 85.3309 20.1896 84.5206 21.1761C83.7261 22.1468 82.7491 22.9344 81.5892 23.5389C80.4295 24.1436 79.111 24.446 77.6333 24.446ZM98.7993 22.429L98.3341 24.446H88.437L92.5038 7.18986H94.88L91.2785 22.429H98.7993ZM109.021 7.18986H106.645L102.579 24.446H104.955L109.021 7.18986ZM119.964 24.446C119.67 23.4831 119.32 22.3875 118.911 21.1591C118.503 19.9308 118.054 18.6857 117.564 17.424C117.09 16.1623 116.6 14.9422 116.094 13.7637C115.587 12.5685 115.09 11.5308 114.599 10.6511L111.341 24.446H109.014L113.081 7.18986H115.114C115.637 8.08643 116.167 9.10723 116.706 10.2527C117.262 11.3815 117.784 12.5436 118.274 13.7388C118.78 14.934 119.246 16.1043 119.67 17.2497C120.095 18.3951 120.446 19.4244 120.724 20.3374L123.762 7.18986H126.089L122.047 24.446H119.964ZM130.186 7.18986L126.119 24.446H136.727L137.192 22.429H128.961L130.406 16.3781H137.192L137.658 14.411H130.847L132.072 9.20682H139.74L140.205 7.18986H130.186Z" fill="#F1F5F9"/>
</svg>
